solid Default
  facet normal -1.000000e+00 -1.073328e-06 -1.741433e-07
    outer loop
      vertex -1.055880e+01 -3.084566e+01 1.391758e+01
      vertex -1.055880e+01 -2.520355e+01 1.391759e+01
      vertex -1.055879e+01 -3.705075e+01 0.000000e+00
    endloop
  endfacet
  facet normal 0.000000e+00 0.000000e+00 -1.000000e+00
    outer loop
      vertex 1.055872e+01 3.705074e+01 3.873222e+01
      vertex 9.957465e+00 3.140395e+01 3.873222e+01
      vertex 9.957466e+00 3.701212e+01 3.873222e+01
    endloop
  endfacet
  facet normal -1.000000e+00 -1.280875e-06 1.328654e-07
    outer loop
      vertex -1.055888e+01 3.705073e+01 0.000000e+00
      vertex -1.055887e+01 3.140395e+01 1.393091e+01
      vertex -1.055888e+01 3.561423e+01 3.173032e+01
    endloop
  endfacet
  facet normal -1.000000e+00 -1.148249e-06 -1.407399e-07
    outer loop
      vertex -1.055879e+01 -3.698443e+01 3.173032e+01
      vertex -1.055880e+01 -3.084566e+01 1.391758e+01
      vertex -1.055879e+01 -3.705075e+01 0.000000e+00
    endloop
  endfacet
  facet normal -1.000000e+00 -1.099470e-06 -1.830322e-07
    outer loop
      vertex -1.055881e+01 -2.520355e+01 3.873222e+01
      vertex -1.055886e+01 2.643352e+01 3.873222e+01
      vertex -1.055880e+01 -2.520355e+01 1.391759e+01
    endloop
  endfacet
  facet normal 1.000000e+00 1.141826e-06 -7.395638e-08
    outer loop
      vertex 1.055881e+01 -3.705074e+01 0.000000e+00
      vertex 1.055880e+01 -3.084566e+01 1.391761e+01
      vertex 1.055881e+01 -3.698442e+01 3.173032e+01
    endloop
  endfacet
  facet normal 1.000000e+00 1.177957e-06 -6.594275e-08
    outer loop
      vertex 1.055872e+01 3.705075e+01 0.000000e+00
      vertex 1.055872e+01 3.561393e+01 3.173032e+01
      vertex 1.055873e+01 3.140395e+01 1.392276e+01
    endloop
  endfacet
  facet normal 0.000000e+00 0.000000e+00 1.000000e+00
    outer loop
      vertex -1.055888e+01 3.701242e+01 3.873222e+01
      vertex -9.957593e+00 3.701242e+01 3.873222e+01
      vertex -1.055888e+01 3.705075e+01 3.873222e+01
    endloop
  endfacet
  facet normal 0.000000e+00 0.000000e+00 1.000000e+00
    outer loop
      vertex 1.055872e+01 3.705074e+01 3.873222e+01
      vertex 9.957466e+00 3.701212e+01 3.873222e+01
      vertex 1.055872e+01 3.701212e+01 3.873222e+01
    endloop
  endfacet
  facet normal 1.000000e+00 -1.030794e-05 4.240436e-07
    outer loop
      vertex -8.633520e+00 3.500234e+01 3.159164e+01
      vertex -8.633523e+00 3.500234e+01 3.873222e+01
      vertex -8.633560e+00 3.140395e+01 3.873222e+01
    endloop
  endfacet
  facet normal 0.000000e+00 0.000000e+00 1.000000e+00
    outer loop
      vertex 8.634164e+00 3.500216e+01 3.159165e+01
      vertex 8.634183e+00 3.705074e+01 3.159165e+01
      vertex 6.665535e+00 3.705074e+01 3.159165e+01
    endloop
  endfacet
  facet normal 0.000000e+00 0.000000e+00 1.000000e+00
    outer loop
      vertex -9.957593e+00 3.701242e+01 3.873222e+01
      vertex -8.633523e+00 3.500234e+01 3.873222e+01
      vertex -8.633520e+00 3.533430e+01 3.873222e+01
    endloop
  endfacet
  facet normal 1.000000e+00 -9.121091e-06 4.240436e-07
    outer loop
      vertex -8.633523e+00 3.500234e+01 3.873222e+01
      vertex -8.633520e+00 3.500234e+01 3.159164e+01
      vertex -8.633520e+00 3.533430e+01 3.873222e+01
    endloop
  endfacet
  facet normal 1.979157e-07 1.000000e+00 -5.871350e-07
    outer loop
      vertex 6.665535e+00 3.705074e+01 3.159165e+01
      vertex -1.055888e+01 3.705073e+01 0.000000e+00
      vertex -8.633501e+00 3.705075e+01 3.159164e+01
    endloop
  endfacet
  facet normal -1.000000e+00 2.912618e-05 -2.530826e-05
    outer loop
      vertex 8.633427e+00 -3.484984e+01 3.159164e+01
      vertex 8.633363e+00 -3.084396e+01 3.874421e+01
      vertex 8.633527e+00 -2.520355e+01 3.874497e+01
    endloop
  endfacet
  facet normal 1.000000e+00 -1.114994e-05 0.000000e+00
    outer loop
      vertex 8.634164e+00 3.500216e+01 3.159165e+01
      vertex 8.634124e+00 3.140395e+01 3.874497e+01
      vertex 8.634124e+00 3.140395e+01 3.873222e+01
    endloop
  endfacet
  facet normal 1.000000e+00 -1.039812e-05 1.060108e-07
    outer loop
      vertex -8.634218e+00 -3.084566e+01 3.873222e+01
      vertex -8.634260e+00 -3.484964e+01 3.873222e+01
      vertex -8.634259e+00 -3.484964e+01 3.159163e+01
    endloop
  endfacet
  facet normal 0.000000e+00 0.000000e+00 1.000000e+00
    outer loop
      vertex 8.634127e+00 3.168372e+01 3.873222e+01
      vertex 8.634124e+00 3.140395e+01 3.873222e+01
      vertex 9.957465e+00 3.140395e+01 3.873222e+01
    endloop
  endfacet
  facet normal -1.000000e+00 1.082298e-05 -1.647602e-07
    outer loop
      vertex 8.634164e+00 3.500216e+01 3.159165e+01
      vertex 8.634124e+00 3.140395e+01 3.873222e+01
      vertex 8.634127e+00 3.168372e+01 3.873222e+01
    endloop
  endfacet
  facet normal 0.000000e+00 0.000000e+00 1.000000e+00
    outer loop
      vertex 8.634163e+00 3.500216e+01 3.873222e+01
      vertex 8.634127e+00 3.168372e+01 3.873222e+01
      vertex 9.957465e+00 3.140395e+01 3.873222e+01
    endloop
  endfacet
  facet normal -1.000000e+00 1.072129e-05 -2.120175e-07
    outer loop
      vertex 8.634164e+00 3.500216e+01 3.159165e+01
      vertex 8.634127e+00 3.168372e+01 3.873222e+01
      vertex 8.634163e+00 3.500216e+01 3.873222e+01
    endloop
  endfacet
  facet normal -1.000000e+00 1.055492e-05 -2.648445e-07
    outer loop
      vertex 8.633527e+00 -2.520355e+01 3.874497e+01
      vertex 8.634072e+00 2.643352e+01 3.874497e+01
      vertex 8.633427e+00 -3.484984e+01 3.159164e+01
    endloop
  endfacet
  facet normal 1.000000e+00 -1.050846e-05 0.000000e+00
    outer loop
      vertex -8.633560e+00 3.140395e+01 3.873222e+01
      vertex -8.633560e+00 3.140395e+01 3.874497e+01
      vertex -8.633613e+00 2.643352e+01 3.874497e+01
    endloop
  endfacet
  facet normal 0.000000e+00 0.000000e+00 -1.000000e+00
    outer loop
      vertex -1.055879e+01 -3.705075e+01 0.000000e+00
      vertex -1.055888e+01 3.705073e+01 0.000000e+00
      vertex 1.055872e+01 3.705075e+01 0.000000e+00
    endloop
  endfacet
  facet normal 0.000000e+00 0.000000e+00 -1.000000e+00
    outer loop
      vertex 1.055872e+01 3.705075e+01 0.000000e+00
      vertex 1.055881e+01 -3.705074e+01 0.000000e+00
      vertex -1.055879e+01 -3.705075e+01 0.000000e+00
    endloop
  endfacet
  facet normal 0.000000e+00 0.000000e+00 1.000000e+00
    outer loop
      vertex -9.957536e+00 -3.084566e+01 3.874497e+01
      vertex -9.957536e+00 -2.520355e+01 3.874497e+01
      vertex -1.524808e+01 -2.520356e+01 3.874497e+01
    endloop
  endfacet
  facet normal 0.000000e+00 0.000000e+00 1.000000e+00
    outer loop
      vertex -1.524808e+01 -2.520356e+01 3.874497e+01
      vertex -1.524807e+01 -3.084566e+01 3.874497e+01
      vertex -9.957536e+00 -3.084566e+01 3.874497e+01
    endloop
  endfacet
  facet normal -1.000000e+00 -5.366642e-07 -0.000000e+00
    outer loop
      vertex -1.524808e+01 -2.520356e+01 3.874497e+01
      vertex -1.524808e+01 -2.520356e+01 2.657557e+01
      vertex -1.524807e+01 -3.084566e+01 2.657557e+01
    endloop
  endfacet
  facet normal -1.000000e+00 -5.366642e-07 0.000000e+00
    outer loop
      vertex -1.524807e+01 -3.084566e+01 2.657557e+01
      vertex -1.524807e+01 -3.084566e+01 3.874497e+01
      vertex -1.524808e+01 -2.520356e+01 3.874497e+01
    endloop
  endfacet
  facet normal 0.000000e+00 0.000000e+00 1.000000e+00
    outer loop
      vertex 9.957526e+00 -2.520355e+01 3.874497e+01
      vertex 9.957529e+00 -3.084566e+01 3.874497e+01
      vertex 1.524807e+01 -3.084565e+01 3.874497e+01
    endloop
  endfacet
  facet normal 0.000000e+00 0.000000e+00 1.000000e+00
    outer loop
      vertex 1.524807e+01 -3.084565e+01 3.874497e+01
      vertex 1.524807e+01 -2.520354e+01 3.874497e+01
      vertex 9.957526e+00 -2.520355e+01 3.874497e+01
    endloop
  endfacet
  facet normal 1.000000e+00 2.683317e-07 0.000000e+00
    outer loop
      vertex 1.524807e+01 -2.520354e+01 2.657557e+01
      vertex 1.524807e+01 -2.520354e+01 3.874497e+01
      vertex 1.524807e+01 -3.084565e+01 3.874497e+01
    endloop
  endfacet
  facet normal 1.000000e+00 2.683317e-07 0.000000e+00
    outer loop
      vertex 1.524807e+01 -3.084565e+01 3.874497e+01
      vertex 1.524807e+01 -3.084565e+01 2.657557e+01
      vertex 1.524807e+01 -2.520354e+01 2.657557e+01
    endloop
  endfacet
  facet normal 0.000000e+00 0.000000e+00 1.000000e+00
    outer loop
      vertex 9.957465e+00 3.140395e+01 3.874497e+01
      vertex 9.957466e+00 2.643352e+01 3.874497e+01
      vertex 1.523120e+01 2.643352e+01 3.874497e+01
    endloop
  endfacet
  facet normal 0.000000e+00 0.000000e+00 1.000000e+00
    outer loop
      vertex 1.523120e+01 2.643352e+01 3.874497e+01
      vertex 1.523120e+01 3.140394e+01 3.874497e+01
      vertex 9.957465e+00 3.140395e+01 3.874497e+01
    endloop
  endfacet
  facet normal 1.000000e+00 -3.045931e-07 0.000000e+00
    outer loop
      vertex 1.523120e+01 2.643352e+01 3.874497e+01
      vertex 1.523120e+01 2.643352e+01 2.657557e+01
      vertex 1.523120e+01 3.140394e+01 2.657557e+01
    endloop
  endfacet
  facet normal 1.000000e+00 -3.045931e-07 0.000000e+00
    outer loop
      vertex 1.523120e+01 3.140394e+01 2.657557e+01
      vertex 1.523120e+01 3.140394e+01 3.874497e+01
      vertex 1.523120e+01 2.643352e+01 3.874497e+01
    endloop
  endfacet
  facet normal 0.000000e+00 0.000000e+00 1.000000e+00
    outer loop
      vertex -9.957591e+00 2.643352e+01 3.874497e+01
      vertex -9.957592e+00 3.140395e+01 3.874497e+01
      vertex -1.520520e+01 3.140395e+01 3.874497e+01
    endloop
  endfacet
  facet normal 0.000000e+00 0.000000e+00 1.000000e+00
    outer loop
      vertex -1.520520e+01 3.140395e+01 3.874497e+01
      vertex -1.520520e+01 2.643352e+01 3.874497e+01
      vertex -9.957591e+00 2.643352e+01 3.874497e+01
    endloop
  endfacet
  facet normal -1.000000e+00 0.000000e+00 0.000000e+00
    outer loop
      vertex -1.520520e+01 2.643352e+01 2.657557e+01
      vertex -1.520520e+01 2.643352e+01 3.874497e+01
      vertex -1.520520e+01 3.140395e+01 3.874497e+01
    endloop
  endfacet
  facet normal -1.000000e+00 0.000000e+00 0.000000e+00
    outer loop
      vertex -1.520520e+01 3.140395e+01 3.874497e+01
      vertex -1.520520e+01 3.140395e+01 2.657557e+01
      vertex -1.520520e+01 2.643352e+01 2.657557e+01
    endloop
  endfacet
  facet normal -1.000000e+00 -5.398830e-07 0.000000e+00
    outer loop
      vertex -1.520520e+01 3.140395e+01 2.657557e+01
      vertex -1.520520e+01 3.140395e+01 3.874497e+01
      vertex -1.520520e+01 3.701242e+01 3.874497e+01
    endloop
  endfacet
  facet normal -1.000000e+00 6.990933e-07 -5.710024e-07
    outer loop
      vertex -1.520520e+01 3.701242e+01 3.874497e+01
      vertex -1.520520e+01 3.561424e+01 3.173032e+01
      vertex -1.520520e+01 3.140395e+01 2.657557e+01
    endloop
  endfacet
  facet normal 1.000000e+00 -3.596116e-07 0.000000e+00
    outer loop
      vertex 1.523120e+01 3.140394e+01 3.874497e+01
      vertex 1.523120e+01 3.140394e+01 2.657557e+01
      vertex 1.523121e+01 3.561392e+01 3.173032e+01
    endloop
  endfacet
  facet normal 1.000000e+00 2.699558e-07 3.778477e-07
    outer loop
      vertex 1.523121e+01 3.561392e+01 3.173032e+01
      vertex 1.523120e+01 3.701211e+01 3.874497e+01
      vertex 1.523120e+01 3.140394e+01 3.874497e+01
    endloop
  endfacet
  facet normal -1.000000e+00 -5.398830e-07 0.000000e+00
    outer loop
      vertex -1.520520e+01 3.701242e+01 3.874497e+01
      vertex -1.520520e+01 3.140395e+01 3.874497e+01
      vertex -1.520520e+01 3.140395e+01 5.673551e+01
    endloop
  endfacet
  facet normal -1.000000e+00 -5.398830e-07 0.000000e+00
    outer loop
      vertex -1.520520e+01 3.140395e+01 5.673551e+01
      vertex -1.520520e+01 3.701242e+01 5.673551e+01
      vertex -1.520520e+01 3.701242e+01 3.874497e+01
    endloop
  endfacet
  facet normal 5.770086e-07 1.000000e+00 0.000000e+00
    outer loop
      vertex -9.957593e+00 3.701242e+01 3.874497e+01
      vertex -1.520520e+01 3.701242e+01 3.874497e+01
      vertex -1.520520e+01 3.701242e+01 5.673551e+01
    endloop
  endfacet
  facet normal 5.770086e-07 1.000000e+00 0.000000e+00
    outer loop
      vertex -1.520520e+01 3.701242e+01 5.673551e+01
      vertex -9.957593e+00 3.701242e+01 5.673551e+01
      vertex -9.957593e+00 3.701242e+01 3.874497e+01
    endloop
  endfacet
  facet normal -5.770087e-07 -1.000000e+00 0.000000e+00
    outer loop
      vertex -1.520520e+01 3.140395e+01 3.874497e+01
      vertex -9.957592e+00 3.140395e+01 3.874497e+01
      vertex -9.957592e+00 3.140395e+01 5.673551e+01
    endloop
  endfacet
  facet normal -5.770087e-07 -1.000000e+00 0.000000e+00
    outer loop
      vertex -9.957592e+00 3.140395e+01 5.673551e+01
      vertex -1.520520e+01 3.140395e+01 5.673551e+01
      vertex -1.520520e+01 3.140395e+01 3.874497e+01
    endloop
  endfacet
  facet normal 5.741500e-07 1.000000e+00 0.000000e+00
    outer loop
      vertex 1.523120e+01 3.701211e+01 3.874497e+01
      vertex 9.957466e+00 3.701212e+01 3.874497e+01
      vertex 9.957466e+00 3.701212e+01 5.673551e+01
    endloop
  endfacet
  facet normal 5.741500e-07 1.000000e+00 0.000000e+00
    outer loop
      vertex 9.957466e+00 3.701212e+01 5.673551e+01
      vertex 1.523120e+01 3.701211e+01 5.673551e+01
      vertex 1.523120e+01 3.701211e+01 3.874497e+01
    endloop
  endfacet
  facet normal 1.000000e+00 2.699558e-07 0.000000e+00
    outer loop
      vertex 1.523120e+01 3.140394e+01 3.874497e+01
      vertex 1.523120e+01 3.701211e+01 3.874497e+01
      vertex 1.523120e+01 3.701211e+01 5.673551e+01
    endloop
  endfacet
  facet normal 1.000000e+00 2.699558e-07 0.000000e+00
    outer loop
      vertex 1.523120e+01 3.701211e+01 5.673551e+01
      vertex 1.523120e+01 3.140394e+01 5.673551e+01
      vertex 1.523120e+01 3.140394e+01 3.874497e+01
    endloop
  endfacet
  facet normal -5.741498e-07 -1.000000e+00 0.000000e+00
    outer loop
      vertex 9.957465e+00 3.140395e+01 3.874497e+01
      vertex 1.523120e+01 3.140394e+01 3.874497e+01
      vertex 1.523120e+01 3.140394e+01 5.673551e+01
    endloop
  endfacet
  facet normal -5.741498e-07 -1.000000e+00 0.000000e+00
    outer loop
      vertex 1.523120e+01 3.140394e+01 5.673551e+01
      vertex 9.957465e+00 3.140395e+01 5.673551e+01
      vertex 9.957465e+00 3.140395e+01 3.874497e+01
    endloop
  endfacet
  facet normal 1.000000e+00 2.699558e-07 0.000000e+00
    outer loop
      vertex 1.523120e+01 3.140394e+01 5.673551e+01
      vertex 1.523120e+01 3.701211e+01 5.673551e+01
      vertex 1.523120e+01 3.701211e+01 6.055261e+01
    endloop
  endfacet
  facet normal 1.000000e+00 2.699558e-07 0.000000e+00
    outer loop
      vertex 1.523120e+01 3.701211e+01 6.055261e+01
      vertex 1.523120e+01 3.140394e+01 6.055261e+01
      vertex 1.523120e+01 3.140394e+01 5.673551e+01
    endloop
  endfacet
  facet normal 5.741500e-07 1.000000e+00 0.000000e+00
    outer loop
      vertex 1.523120e+01 3.701211e+01 5.673551e+01
      vertex 9.957466e+00 3.701212e+01 5.673551e+01
      vertex 9.957466e+00 3.701212e+01 6.055261e+01
    endloop
  endfacet
  facet normal 5.741500e-07 1.000000e+00 0.000000e+00
    outer loop
      vertex 9.957466e+00 3.701212e+01 6.055261e+01
      vertex 1.523120e+01 3.701211e+01 6.055261e+01
      vertex 1.523120e+01 3.701211e+01 5.673551e+01
    endloop
  endfacet
  facet normal 5.770086e-07 1.000000e+00 0.000000e+00
    outer loop
      vertex -9.957593e+00 3.701242e+01 5.673551e+01
      vertex -1.520520e+01 3.701242e+01 5.673551e+01
      vertex -1.520520e+01 3.701242e+01 6.055261e+01
    endloop
  endfacet
  facet normal 5.770086e-07 1.000000e+00 0.000000e+00
    outer loop
      vertex -1.520520e+01 3.701242e+01 6.055261e+01
      vertex -9.957593e+00 3.701242e+01 6.055261e+01
      vertex -9.957593e+00 3.701242e+01 5.673551e+01
    endloop
  endfacet
  facet normal -1.000000e+00 -5.398830e-07 0.000000e+00
    outer loop
      vertex -1.520520e+01 3.701242e+01 5.673551e+01
      vertex -1.520520e+01 3.140395e+01 5.673551e+01
      vertex -1.520520e+01 3.140395e+01 6.055261e+01
    endloop
  endfacet
  facet normal -1.000000e+00 -5.398830e-07 0.000000e+00
    outer loop
      vertex -1.520520e+01 3.140395e+01 6.055261e+01
      vertex -1.520520e+01 3.701242e+01 6.055261e+01
      vertex -1.520520e+01 3.701242e+01 5.673551e+01
    endloop
  endfacet
  facet normal 0.000000e+00 0.000000e+00 1.000000e+00
    outer loop
      vertex -1.520520e+01 3.140395e+01 6.055261e+01
      vertex -9.957592e+00 3.140395e+01 6.055261e+01
      vertex -9.957593e+00 3.701242e+01 6.055261e+01
    endloop
  endfacet
  facet normal 0.000000e+00 0.000000e+00 1.000000e+00
    outer loop
      vertex -9.957593e+00 3.701242e+01 6.055261e+01
      vertex -1.520520e+01 3.701242e+01 6.055261e+01
      vertex -1.520520e+01 3.140395e+01 6.055261e+01
    endloop
  endfacet
  facet normal 0.000000e+00 0.000000e+00 1.000000e+00
    outer loop
      vertex 9.957465e+00 3.140395e+01 6.055261e+01
      vertex 1.523120e+01 3.140394e+01 6.055261e+01
      vertex 1.523120e+01 3.701211e+01 6.055261e+01
    endloop
  endfacet
  facet normal 0.000000e+00 0.000000e+00 1.000000e+00
    outer loop
      vertex 1.523120e+01 3.701211e+01 6.055261e+01
      vertex 9.957466e+00 3.701212e+01 6.055261e+01
      vertex 9.957465e+00 3.140395e+01 6.055261e+01
    endloop
  endfacet
  facet normal -1.000000e+00 -1.437616e-06 -0.000000e+00
    outer loop
      vertex -1.520520e+01 3.140395e+01 6.055261e+01
      vertex -1.520520e+01 3.140395e+01 5.673551e+01
      vertex -1.520520e+01 3.035085e+01 5.673551e+01
    endloop
  endfacet
  facet normal -1.000000e+00 -1.437616e-06 0.000000e+00
    outer loop
      vertex -1.520520e+01 3.035085e+01 5.673551e+01
      vertex -1.520520e+01 3.035085e+01 6.055261e+01
      vertex -1.520520e+01 3.140395e+01 6.055261e+01
    endloop
  endfacet
  facet normal 0.000000e+00 0.000000e+00 1.000000e+00
    outer loop
      vertex -9.957592e+00 3.140395e+01 6.055261e+01
      vertex -1.520520e+01 3.140395e+01 6.055261e+01
      vertex -1.520520e+01 3.035085e+01 6.055261e+01
    endloop
  endfacet
  facet normal 0.000000e+00 0.000000e+00 1.000000e+00
    outer loop
      vertex -1.520520e+01 3.035085e+01 6.055261e+01
      vertex -9.957592e+00 3.035085e+01 6.055261e+01
      vertex -9.957592e+00 3.140395e+01 6.055261e+01
    endloop
  endfacet
  facet normal 0.000000e+00 0.000000e+00 1.000000e+00
    outer loop
      vertex 1.523120e+01 3.140394e+01 6.055261e+01
      vertex 9.957465e+00 3.140395e+01 6.055261e+01
      vertex 9.957463e+00 3.035084e+01 6.055261e+01
    endloop
  endfacet
  facet normal 0.000000e+00 0.000000e+00 1.000000e+00
    outer loop
      vertex 9.957463e+00 3.035084e+01 6.055261e+01
      vertex 1.523120e+01 3.035084e+01 6.055261e+01
      vertex 1.523120e+01 3.140394e+01 6.055261e+01
    endloop
  endfacet
  facet normal 1.000000e+00 -5.750448e-06 0.000000e+00
    outer loop
      vertex 1.523120e+01 3.140394e+01 5.673551e+01
      vertex 1.523120e+01 3.140394e+01 6.055261e+01
      vertex 1.523120e+01 3.035084e+01 6.055261e+01
    endloop
  endfacet
  facet normal 1.000000e+00 -5.750448e-06 0.000000e+00
    outer loop
      vertex 1.523120e+01 3.035084e+01 6.055261e+01
      vertex 1.523120e+01 3.035084e+01 5.673551e+01
      vertex 1.523120e+01 3.140394e+01 5.673551e+01
    endloop
  endfacet
  facet normal 0.000000e+00 0.000000e+00 -1.000000e+00
    outer loop
      vertex 9.957465e+00 3.140395e+01 5.673551e+01
      vertex 1.523120e+01 3.140394e+01 5.673551e+01
      vertex 1.523120e+01 3.035084e+01 5.673551e+01
    endloop
  endfacet
  facet normal 0.000000e+00 0.000000e+00 -1.000000e+00
    outer loop
      vertex 1.523120e+01 3.035084e+01 5.673551e+01
      vertex 9.957463e+00 3.035084e+01 5.673551e+01
      vertex 9.957465e+00 3.140395e+01 5.673551e+01
    endloop
  endfacet
  facet normal 0.000000e+00 0.000000e+00 -1.000000e+00
    outer loop
      vertex -1.520520e+01 3.140395e+01 5.673551e+01
      vertex -9.957592e+00 3.140395e+01 5.673551e+01
      vertex -9.957592e+00 3.035085e+01 5.673551e+01
    endloop
  endfacet
  facet normal 0.000000e+00 0.000000e+00 -1.000000e+00
    outer loop
      vertex -9.957592e+00 3.035085e+01 5.673551e+01
      vertex -1.520520e+01 3.035085e+01 5.673551e+01
      vertex -1.520520e+01 3.140395e+01 5.673551e+01
    endloop
  endfacet
  facet normal -5.741502e-07 -1.000000e+00 0.000000e+00
    outer loop
      vertex 9.957463e+00 3.035084e+01 5.673551e+01
      vertex 1.523120e+01 3.035084e+01 5.673551e+01
      vertex 1.523120e+01 3.035084e+01 6.055261e+01
    endloop
  endfacet
  facet normal -5.741502e-07 -1.000000e+00 0.000000e+00
    outer loop
      vertex 1.523120e+01 3.035084e+01 6.055261e+01
      vertex 9.957463e+00 3.035084e+01 6.055261e+01
      vertex 9.957463e+00 3.035084e+01 5.673551e+01
    endloop
  endfacet
  facet normal -5.770089e-07 -1.000000e+00 0.000000e+00
    outer loop
      vertex -1.520520e+01 3.035085e+01 5.673551e+01
      vertex -9.957592e+00 3.035085e+01 5.673551e+01
      vertex -9.957592e+00 3.035085e+01 6.055261e+01
    endloop
  endfacet
  facet normal -5.770089e-07 -1.000000e+00 0.000000e+00
    outer loop
      vertex -9.957592e+00 3.035085e+01 6.055261e+01
      vertex -1.520520e+01 3.035085e+01 6.055261e+01
      vertex -1.520520e+01 3.035085e+01 5.673551e+01
    endloop
  endfacet
  facet normal -1.000000e+00 -2.466225e-07 -0.000000e+00
    outer loop
      vertex -1.524807e+01 -3.084566e+01 3.874497e+01
      vertex -1.524807e+01 -3.084566e+01 2.657557e+01
      vertex -1.524807e+01 -3.698443e+01 3.173032e+01
    endloop
  endfacet
  facet normal -1.000000e+00 -2.466225e-07 0.000000e+00
    outer loop
      vertex -1.524807e+01 -3.698443e+01 3.173032e+01
      vertex -1.524807e+01 -3.698443e+01 3.874497e+01
      vertex -1.524807e+01 -3.084566e+01 3.874497e+01
    endloop
  endfacet
  facet normal 1.000000e+00 1.233112e-06 0.000000e+00
    outer loop
      vertex 1.524807e+01 -3.084565e+01 2.657557e+01
      vertex 1.524807e+01 -3.084565e+01 3.874497e+01
      vertex 1.524808e+01 -3.698442e+01 3.874497e+01
    endloop
  endfacet
  facet normal 1.000000e+00 1.233112e-06 0.000000e+00
    outer loop
      vertex 1.524808e+01 -3.698442e+01 3.874497e+01
      vertex 1.524808e+01 -3.698442e+01 3.173032e+01
      vertex 1.524807e+01 -3.084565e+01 2.657557e+01
    endloop
  endfacet
  facet normal 1.000000e+00 1.233112e-06 0.000000e+00
    outer loop
      vertex 1.524808e+01 -3.698442e+01 3.874497e+01
      vertex 1.524807e+01 -3.084565e+01 3.874497e+01
      vertex 1.524807e+01 -3.084565e+01 3.885828e+01
    endloop
  endfacet
  facet normal 1.000000e+00 1.233112e-06 0.000000e+00
    outer loop
      vertex 1.524807e+01 -3.084565e+01 3.885828e+01
      vertex 1.524808e+01 -3.698442e+01 3.885828e+01
      vertex 1.524808e+01 -3.698442e+01 3.874497e+01
    endloop
  endfacet
  facet normal -1.144653e-06 1.000000e+00 0.000000e+00
    outer loop
      vertex 1.524807e+01 -3.084565e+01 3.874497e+01
      vertex 9.957529e+00 -3.084566e+01 3.874497e+01
      vertex 9.957529e+00 -3.084566e+01 3.885828e+01
    endloop
  endfacet
  facet normal -1.144653e-06 1.000000e+00 0.000000e+00
    outer loop
      vertex 9.957529e+00 -3.084566e+01 3.885828e+01
      vertex 1.524807e+01 -3.084565e+01 3.885828e+01
      vertex 1.524807e+01 -3.084565e+01 3.874497e+01
    endloop
  endfacet
  facet normal -1.000000e+00 -2.466225e-07 0.000000e+00
    outer loop
      vertex -1.524807e+01 -3.084566e+01 3.874497e+01
      vertex -1.524807e+01 -3.698443e+01 3.874497e+01
      vertex -1.524807e+01 -3.698443e+01 3.885993e+01
    endloop
  endfacet
  facet normal -1.000000e+00 -2.466225e-07 0.000000e+00
    outer loop
      vertex -1.524807e+01 -3.698443e+01 3.885993e+01
      vertex -1.524807e+01 -3.084566e+01 3.885993e+01
      vertex -1.524807e+01 -3.084566e+01 3.874497e+01
    endloop
  endfacet
  facet normal -5.723268e-07 1.000000e+00 0.000000e+00
    outer loop
      vertex -9.957536e+00 -3.084566e+01 3.874497e+01
      vertex -1.524807e+01 -3.084566e+01 3.874497e+01
      vertex -1.524807e+01 -3.084566e+01 3.885993e+01
    endloop
  endfacet
  facet normal -5.723268e-07 1.000000e+00 0.000000e+00
    outer loop
      vertex -1.524807e+01 -3.084566e+01 3.885993e+01
      vertex -9.957536e+00 -3.084566e+01 3.885993e+01
      vertex -9.957536e+00 -3.084566e+01 3.874497e+01
    endloop
  endfacet
  facet normal -1.000000e+00 -2.466225e-07 0.000000e+00
    outer loop
      vertex -1.524807e+01 -3.084566e+01 3.885993e+01
      vertex -1.524807e+01 -3.698443e+01 3.885993e+01
      vertex -1.524807e+01 -3.698443e+01 5.673489e+01
    endloop
  endfacet
  facet normal -1.000000e+00 -2.466225e-07 0.000000e+00
    outer loop
      vertex -1.524807e+01 -3.698443e+01 5.673489e+01
      vertex -1.524807e+01 -3.084566e+01 5.673489e+01
      vertex -1.524807e+01 -3.084566e+01 3.885993e+01
    endloop
  endfacet
  facet normal 5.723265e-07 -1.000000e+00 0.000000e+00
    outer loop
      vertex -1.524807e+01 -3.698443e+01 3.885993e+01
      vertex -9.957531e+00 -3.698443e+01 3.885993e+01
      vertex -9.957531e+00 -3.698443e+01 5.673489e+01
    endloop
  endfacet
  facet normal 5.723265e-07 -1.000000e+00 0.000000e+00
    outer loop
      vertex -9.957531e+00 -3.698443e+01 5.673489e+01
      vertex -1.524807e+01 -3.698443e+01 5.673489e+01
      vertex -1.524807e+01 -3.698443e+01 3.885993e+01
    endloop
  endfacet
  facet normal 5.723267e-07 -1.000000e+00 0.000000e+00
    outer loop
      vertex 9.957537e+00 -3.698442e+01 3.885828e+01
      vertex 1.524808e+01 -3.698442e+01 3.885828e+01
      vertex 1.524808e+01 -3.698442e+01 5.673324e+01
    endloop
  endfacet
  facet normal 5.723267e-07 -1.000000e+00 0.000000e+00
    outer loop
      vertex 1.524808e+01 -3.698442e+01 5.673324e+01
      vertex 9.957537e+00 -3.698442e+01 5.673324e+01
      vertex 9.957537e+00 -3.698442e+01 3.885828e+01
    endloop
  endfacet
  facet normal 1.000000e+00 1.233112e-06 0.000000e+00
    outer loop
      vertex 1.524808e+01 -3.698442e+01 3.885828e+01
      vertex 1.524807e+01 -3.084565e+01 3.885828e+01
      vertex 1.524807e+01 -3.084565e+01 5.673324e+01
    endloop
  endfacet
  facet normal 1.000000e+00 1.233112e-06 0.000000e+00
    outer loop
      vertex 1.524807e+01 -3.084565e+01 5.673324e+01
      vertex 1.524808e+01 -3.698442e+01 5.673324e+01
      vertex 1.524808e+01 -3.698442e+01 3.885828e+01
    endloop
  endfacet
  facet normal -8.018650e-07 -1.000000e+00 -0.000000e+00
    outer loop
      vertex -9.957531e+00 -3.698443e+01 5.673489e+01
      vertex -9.957531e+00 -3.698443e+01 3.885993e+01
      vertex -6.181439e+00 -3.698443e+01 3.885993e+01
    endloop
  endfacet
  facet normal -8.018650e-07 -1.000000e+00 0.000000e+00
    outer loop
      vertex -6.181439e+00 -3.698443e+01 3.885993e+01
      vertex -6.181439e+00 -3.698443e+01 5.673489e+01
      vertex -9.957531e+00 -3.698443e+01 5.673489e+01
    endloop
  endfacet
  facet normal 0.000000e+00 0.000000e+00 -1.000000e+00
    outer loop
      vertex -9.957592e+00 3.035085e+01 5.673551e+01
      vertex -9.957592e+00 3.140395e+01 5.673551e+01
      vertex -6.181499e+00 3.140395e+01 5.673551e+01
    endloop
  endfacet
  facet normal 0.000000e+00 0.000000e+00 -1.000000e+00
    outer loop
      vertex -6.181499e+00 3.140395e+01 5.673551e+01
      vertex -6.181499e+00 3.035085e+01 5.673551e+01
      vertex -9.957592e+00 3.035085e+01 5.673551e+01
    endloop
  endfacet
  facet normal -8.018648e-07 -1.000000e+00 -0.000000e+00
    outer loop
      vertex -9.957592e+00 3.035085e+01 6.055261e+01
      vertex -9.957592e+00 3.035085e+01 5.673551e+01
      vertex -6.181499e+00 3.035085e+01 5.673551e+01
    endloop
  endfacet
  facet normal -8.018648e-07 -1.000000e+00 0.000000e+00
    outer loop
      vertex -6.181499e+00 3.035085e+01 5.673551e+01
      vertex -6.181499e+00 3.035085e+01 6.055261e+01
      vertex -9.957592e+00 3.035085e+01 6.055261e+01
    endloop
  endfacet
  facet normal 0.000000e+00 0.000000e+00 1.000000e+00
    outer loop
      vertex -9.957592e+00 3.140395e+01 6.055261e+01
      vertex -9.957592e+00 3.035085e+01 6.055261e+01
      vertex -6.181499e+00 3.035085e+01 6.055261e+01
    endloop
  endfacet
  facet normal 0.000000e+00 0.000000e+00 1.000000e+00
    outer loop
      vertex -6.181499e+00 3.035085e+01 6.055261e+01
      vertex -6.181499e+00 3.140395e+01 6.055261e+01
      vertex -9.957592e+00 3.140395e+01 6.055261e+01
    endloop
  endfacet
  facet normal 0.000000e+00 0.000000e+00 1.000000e+00
    outer loop
      vertex -9.957593e+00 3.701242e+01 6.055261e+01
      vertex -9.957592e+00 3.140395e+01 6.055261e+01
      vertex -6.181499e+00 3.140395e+01 6.055261e+01
    endloop
  endfacet
  facet normal 0.000000e+00 0.000000e+00 1.000000e+00
    outer loop
      vertex -6.181499e+00 3.140395e+01 6.055261e+01
      vertex -6.181501e+00 3.701242e+01 6.055261e+01
      vertex -9.957593e+00 3.701242e+01 6.055261e+01
    endloop
  endfacet
  facet normal -8.018649e-07 1.000000e+00 0.000000e+00
    outer loop
      vertex -9.957593e+00 3.701242e+01 5.673551e+01
      vertex -9.957593e+00 3.701242e+01 6.055261e+01
      vertex -6.181501e+00 3.701242e+01 6.055261e+01
    endloop
  endfacet
  facet normal -8.018649e-07 1.000000e+00 0.000000e+00
    outer loop
      vertex -6.181501e+00 3.701242e+01 6.055261e+01
      vertex -6.181501e+00 3.701242e+01 5.673551e+01
      vertex -9.957593e+00 3.701242e+01 5.673551e+01
    endloop
  endfacet
  facet normal -9.355084e-06 -1.000000e+00 -0.000000e+00
    outer loop
      vertex -9.957592e+00 3.140395e+01 5.673551e+01
      vertex -9.957592e+00 3.140395e+01 3.874497e+01
      vertex -9.633926e+00 3.140395e+01 3.874497e+01
    endloop
  endfacet
  facet normal 0.000000e+00 -1.000000e+00 1.683059e-07
    outer loop
      vertex -9.633926e+00 3.140395e+01 3.874497e+01
      vertex -6.181499e+00 3.140395e+01 5.673551e+01
      vertex -9.957592e+00 3.140395e+01 5.673551e+01
    endloop
  endfacet
  facet normal -8.018649e-07 1.000000e+00 0.000000e+00
    outer loop
      vertex -9.957593e+00 3.701242e+01 3.874497e+01
      vertex -9.957593e+00 3.701242e+01 5.673551e+01
      vertex -6.181501e+00 3.701242e+01 5.673551e+01
    endloop
  endfacet
  facet normal 0.000000e+00 1.000000e+00 -1.683059e-07
    outer loop
      vertex -6.181501e+00 3.701242e+01 5.673551e+01
      vertex -9.633927e+00 3.701242e+01 3.874497e+01
      vertex -9.957593e+00 3.701242e+01 3.874497e+01
    endloop
  endfacet
  facet normal 0.000000e+00 0.000000e+00 -1.000000e+00
    outer loop
      vertex -9.957592e+00 3.140395e+01 3.874497e+01
      vertex -9.957593e+00 3.701242e+01 3.874497e+01
      vertex -9.633927e+00 3.701242e+01 3.874497e+01
    endloop
  endfacet
  facet normal 0.000000e+00 0.000000e+00 -1.000000e+00
    outer loop
      vertex -9.633927e+00 3.701242e+01 3.874497e+01
      vertex -9.633926e+00 3.140395e+01 3.874497e+01
      vertex -9.957592e+00 3.140395e+01 3.874497e+01
    endloop
  endfacet
  facet normal 9.820802e-01 1.325520e-07 -1.884634e-01
    outer loop
      vertex -9.633926e+00 3.140395e+01 3.874497e+01
      vertex -9.633927e+00 3.701242e+01 3.874497e+01
      vertex -6.181501e+00 3.701242e+01 5.673551e+01
    endloop
  endfacet
  facet normal 9.820802e-01 3.976561e-07 -1.884634e-01
    outer loop
      vertex -6.181501e+00 3.701242e+01 5.673551e+01
      vertex -6.181499e+00 3.140395e+01 5.673551e+01
      vertex -9.633926e+00 3.140395e+01 3.874497e+01
    endloop
  endfacet
  facet normal 1.000000e+00 4.049120e-07 0.000000e+00
    outer loop
      vertex -6.181499e+00 3.140395e+01 5.673551e+01
      vertex -6.181501e+00 3.701242e+01 5.673551e+01
      vertex -6.181501e+00 3.701242e+01 6.055261e+01
    endloop
  endfacet
  facet normal 1.000000e+00 4.049120e-07 0.000000e+00
    outer loop
      vertex -6.181501e+00 3.701242e+01 6.055261e+01
      vertex -6.181499e+00 3.140395e+01 6.055261e+01
      vertex -6.181499e+00 3.140395e+01 5.673551e+01
    endloop
  endfacet
  facet normal 1.000000e+00 0.000000e+00 0.000000e+00
    outer loop
      vertex -6.181499e+00 3.140395e+01 5.673551e+01
      vertex -6.181499e+00 3.140395e+01 6.055261e+01
      vertex -6.181499e+00 3.035085e+01 6.055261e+01
    endloop
  endfacet
  facet normal 1.000000e+00 0.000000e+00 0.000000e+00
    outer loop
      vertex -6.181499e+00 3.035085e+01 6.055261e+01
      vertex -6.181499e+00 3.035085e+01 5.673551e+01
      vertex -6.181499e+00 3.140395e+01 5.673551e+01
    endloop
  endfacet
  facet normal 1.000000e+00 4.932450e-07 0.000000e+00
    outer loop
      vertex -6.181439e+00 -3.698443e+01 3.885993e+01
      vertex -6.181442e+00 -3.084566e+01 3.885993e+01
      vertex -6.181442e+00 -3.084566e+01 5.673489e+01
    endloop
  endfacet
  facet normal 1.000000e+00 4.932450e-07 0.000000e+00
    outer loop
      vertex -6.181442e+00 -3.084566e+01 5.673489e+01
      vertex -6.181439e+00 -3.698443e+01 5.673489e+01
      vertex -6.181439e+00 -3.698443e+01 3.885993e+01
    endloop
  endfacet
  facet normal -8.328963e-07 -1.000000e+00 0.000000e+00
    outer loop
      vertex 9.957537e+00 -3.698442e+01 3.885828e+01
      vertex 9.957537e+00 -3.698442e+01 5.673324e+01
      vertex 6.322131e+00 -3.698442e+01 5.673324e+01
    endloop
  endfacet
  facet normal -8.328963e-07 -1.000000e+00 -0.000000e+00
    outer loop
      vertex 6.322131e+00 -3.698442e+01 5.673324e+01
      vertex 6.322131e+00 -3.698442e+01 3.885828e+01
      vertex 9.957537e+00 -3.698442e+01 3.885828e+01
    endloop
  endfacet
  facet normal 0.000000e+00 0.000000e+00 1.000000e+00
    outer loop
      vertex 9.957463e+00 3.035084e+01 6.055261e+01
      vertex 9.957465e+00 3.140395e+01 6.055261e+01
      vertex 6.322060e+00 3.140395e+01 6.055261e+01
    endloop
  endfacet
  facet normal 0.000000e+00 0.000000e+00 1.000000e+00
    outer loop
      vertex 6.322060e+00 3.140395e+01 6.055261e+01
      vertex 6.322059e+00 3.035084e+01 6.055261e+01
      vertex 9.957463e+00 3.035084e+01 6.055261e+01
    endloop
  endfacet
  facet normal 0.000000e+00 -1.000000e+00 0.000000e+00
    outer loop
      vertex 9.957463e+00 3.035084e+01 5.673551e+01
      vertex 9.957463e+00 3.035084e+01 6.055261e+01
      vertex 6.322059e+00 3.035084e+01 6.055261e+01
    endloop
  endfacet
  facet normal 0.000000e+00 -1.000000e+00 0.000000e+00
    outer loop
      vertex 6.322059e+00 3.035084e+01 6.055261e+01
      vertex 6.322059e+00 3.035084e+01 5.673551e+01
      vertex 9.957463e+00 3.035084e+01 5.673551e+01
    endloop
  endfacet
  facet normal 0.000000e+00 0.000000e+00 -1.000000e+00
    outer loop
      vertex 9.957465e+00 3.140395e+01 5.673551e+01
      vertex 9.957463e+00 3.035084e+01 5.673551e+01
      vertex 6.322059e+00 3.035084e+01 5.673551e+01
    endloop
  endfacet
  facet normal 0.000000e+00 0.000000e+00 -1.000000e+00
    outer loop
      vertex 6.322059e+00 3.035084e+01 5.673551e+01
      vertex 6.322060e+00 3.140395e+01 5.673551e+01
      vertex 9.957465e+00 3.140395e+01 5.673551e+01
    endloop
  endfacet
  facet normal 0.000000e+00 0.000000e+00 1.000000e+00
    outer loop
      vertex 9.957465e+00 3.140395e+01 6.055261e+01
      vertex 9.957466e+00 3.701212e+01 6.055261e+01
      vertex 6.322060e+00 3.701212e+01 6.055261e+01
    endloop
  endfacet
  facet normal 0.000000e+00 0.000000e+00 1.000000e+00
    outer loop
      vertex 6.322060e+00 3.701212e+01 6.055261e+01
      vertex 6.322060e+00 3.140395e+01 6.055261e+01
      vertex 9.957465e+00 3.140395e+01 6.055261e+01
    endloop
  endfacet
  facet normal 0.000000e+00 1.000000e+00 0.000000e+00
    outer loop
      vertex 9.957466e+00 3.701212e+01 6.055261e+01
      vertex 9.957466e+00 3.701212e+01 5.673551e+01
      vertex 6.322060e+00 3.701212e+01 5.673551e+01
    endloop
  endfacet
  facet normal 0.000000e+00 1.000000e+00 0.000000e+00
    outer loop
      vertex 6.322060e+00 3.701212e+01 5.673551e+01
      vertex 6.322060e+00 3.701212e+01 6.055261e+01
      vertex 9.957466e+00 3.701212e+01 6.055261e+01
    endloop
  endfacet
  facet normal 1.082764e-05 1.000000e+00 0.000000e+00
    outer loop
      vertex 9.957466e+00 3.701212e+01 5.673551e+01
      vertex 9.957466e+00 3.701212e+01 3.874497e+01
      vertex 9.677819e+00 3.701212e+01 3.874497e+01
    endloop
  endfacet
  facet normal 0.000000e+00 1.000000e+00 1.683059e-07
    outer loop
      vertex 9.677819e+00 3.701212e+01 3.874497e+01
      vertex 6.322060e+00 3.701212e+01 5.673551e+01
      vertex 9.957466e+00 3.701212e+01 5.673551e+01
    endloop
  endfacet
  facet normal 0.000000e+00 -1.000000e+00 0.000000e+00
    outer loop
      vertex 9.957465e+00 3.140395e+01 3.874497e+01
      vertex 9.957465e+00 3.140395e+01 5.673551e+01
      vertex 6.322060e+00 3.140395e+01 5.673551e+01
    endloop
  endfacet
  facet normal -1.082767e-05 -1.000000e+00 -2.187980e-06
    outer loop
      vertex 6.322060e+00 3.140395e+01 5.673551e+01
      vertex 9.677819e+00 3.140395e+01 3.874497e+01
      vertex 9.957465e+00 3.140395e+01 3.874497e+01
    endloop
  endfacet
  facet normal 0.000000e+00 0.000000e+00 -1.000000e+00
    outer loop
      vertex 9.957466e+00 3.701212e+01 3.874497e+01
      vertex 9.957465e+00 3.140395e+01 3.874497e+01
      vertex 9.677819e+00 3.140395e+01 3.874497e+01
    endloop
  endfacet
  facet normal 0.000000e+00 0.000000e+00 -1.000000e+00
    outer loop
      vertex 9.677819e+00 3.140395e+01 3.874497e+01
      vertex 9.677819e+00 3.701212e+01 3.874497e+01
      vertex 9.957466e+00 3.701212e+01 3.874497e+01
    endloop
  endfacet
  facet normal -9.830446e-01 -0.000000e+00 -1.833663e-01
    outer loop
      vertex 9.677819e+00 3.701212e+01 3.874497e+01
      vertex 9.677819e+00 3.140395e+01 3.874497e+01
      vertex 6.322060e+00 3.140395e+01 5.673551e+01
    endloop
  endfacet
  facet normal -9.830446e-01 6.634465e-08 -1.833663e-01
    outer loop
      vertex 6.322060e+00 3.140395e+01 5.673551e+01
      vertex 6.322060e+00 3.701212e+01 5.673551e+01
      vertex 9.677819e+00 3.701212e+01 3.874497e+01
    endloop
  endfacet
  facet normal -1.000000e+00 6.748895e-08 0.000000e+00
    outer loop
      vertex 6.322060e+00 3.701212e+01 5.673551e+01
      vertex 6.322060e+00 3.140395e+01 5.673551e+01
      vertex 6.322060e+00 3.140395e+01 6.055261e+01
    endloop
  endfacet
  facet normal -1.000000e+00 6.748895e-08 0.000000e+00
    outer loop
      vertex 6.322060e+00 3.140395e+01 6.055261e+01
      vertex 6.322060e+00 3.701212e+01 6.055261e+01
      vertex 6.322060e+00 3.701212e+01 5.673551e+01
    endloop
  endfacet
  facet normal -1.000000e+00 1.078209e-06 0.000000e+00
    outer loop
      vertex 6.322060e+00 3.140395e+01 6.055261e+01
      vertex 6.322060e+00 3.140395e+01 5.673551e+01
      vertex 6.322059e+00 3.035084e+01 5.673551e+01
    endloop
  endfacet
  facet normal -1.000000e+00 1.078209e-06 0.000000e+00
    outer loop
      vertex 6.322059e+00 3.035084e+01 5.673551e+01
      vertex 6.322059e+00 3.035084e+01 6.055261e+01
      vertex 6.322060e+00 3.140395e+01 6.055261e+01
    endloop
  endfacet
  facet normal -1.000000e+00 -1.233113e-06 0.000000e+00
    outer loop
      vertex 6.322123e+00 -3.084566e+01 3.885828e+01
      vertex 6.322131e+00 -3.698442e+01 3.885828e+01
      vertex 6.322131e+00 -3.698442e+01 5.673324e+01
    endloop
  endfacet
  facet normal -1.000000e+00 -1.233113e-06 0.000000e+00
    outer loop
      vertex 6.322131e+00 -3.698442e+01 5.673324e+01
      vertex 6.322123e+00 -3.084566e+01 5.673324e+01
      vertex 6.322123e+00 -3.084566e+01 3.885828e+01
    endloop
  endfacet
  facet normal 0.000000e+00 -1.000000e+00 0.000000e+00
    outer loop
      vertex -9.957591e+00 2.643352e+01 3.873222e+01
      vertex -9.957591e+00 2.643352e+01 3.874497e+01
      vertex -1.520520e+01 2.643352e+01 3.874497e+01
    endloop
  endfacet
  facet normal 0.000000e+00 -1.000000e+00 0.000000e+00
    outer loop
      vertex -1.520520e+01 2.643352e+01 3.874497e+01
      vertex -1.055886e+01 2.643352e+01 3.873222e+01
      vertex -9.957591e+00 2.643352e+01 3.873222e+01
    endloop
  endfacet
  facet normal -1.144653e-06 1.000000e+00 0.000000e+00
    outer loop
      vertex 9.957526e+00 -2.520355e+01 3.873222e+01
      vertex 9.957526e+00 -2.520355e+01 3.874497e+01
      vertex 1.524807e+01 -2.520354e+01 3.874497e+01
    endloop
  endfacet
  facet normal -2.517924e-06 9.999998e-01 5.698063e-04
    outer loop
      vertex 1.524807e+01 -2.520354e+01 3.874497e+01
      vertex 1.055880e+01 -2.520354e+01 3.873222e+01
      vertex 9.957526e+00 -2.520355e+01 3.873222e+01
    endloop
  endfacet
  facet normal -8.647021e-01 3.890151e-01 -3.177381e-01
    outer loop
      vertex -1.055887e+01 3.140395e+01 1.393091e+01
      vertex -1.520520e+01 3.140395e+01 2.657557e+01
      vertex -1.520520e+01 3.561424e+01 3.173032e+01
    endloop
  endfacet
  facet normal 6.341797e-07 9.731461e-01 -2.301884e-01
    outer loop
      vertex -1.520520e+01 3.561424e+01 3.173032e+01
      vertex -1.055888e+01 3.561423e+01 3.173032e+01
      vertex -1.055887e+01 3.140395e+01 1.393091e+01
    endloop
  endfacet
  facet normal 9.002039e-01 -2.800316e-01 -3.334893e-01
    outer loop
      vertex 1.055880e+01 -3.084566e+01 1.391761e+01
      vertex 1.524807e+01 -3.084565e+01 2.657557e+01
      vertex 1.524808e+01 -3.698442e+01 3.173032e+01
    endloop
  endfacet
  facet normal 6.104768e-07 -9.454311e-01 -3.258224e-01
    outer loop
      vertex 1.524808e+01 -3.698442e+01 3.173032e+01
      vertex 1.055881e+01 -3.698442e+01 3.173032e+01
      vertex 1.055880e+01 -3.084566e+01 1.391761e+01
    endloop
  endfacet
  facet normal -1.291423e-06 1.000000e+00 -2.363719e-13
    outer loop
      vertex -1.055881e+01 -2.520355e+01 3.873222e+01
      vertex -1.055880e+01 -2.520355e+01 1.391759e+01
      vertex -1.524808e+01 -2.520356e+01 2.657557e+01
    endloop
  endfacet
  facet normal -1.291424e-06 1.000000e+00 0.000000e+00
    outer loop
      vertex -1.524808e+01 -2.520356e+01 2.657557e+01
      vertex -1.524808e+01 -2.520356e+01 3.874497e+01
      vertex -1.055881e+01 -2.520355e+01 3.873222e+01
    endloop
  endfacet
  facet normal -1.430816e-06 1.000000e+00 -5.126444e-05
    outer loop
      vertex -1.055881e+01 -2.520355e+01 3.873222e+01
      vertex -1.524808e+01 -2.520356e+01 3.874497e+01
      vertex -9.957536e+00 -2.520355e+01 3.874497e+01
    endloop
  endfacet
  facet normal -2.517931e-06 1.000000e+00 0.000000e+00
    outer loop
      vertex -9.957536e+00 -2.520355e+01 3.874497e+01
      vertex -9.957536e+00 -2.520355e+01 3.873222e+01
      vertex -1.055881e+01 -2.520355e+01 3.873222e+01
    endloop
  endfacet
  facet normal 6.390632e-07 9.806397e-01 -1.958208e-01
    outer loop
      vertex -1.055888e+01 3.701242e+01 3.873222e+01
      vertex -1.055888e+01 3.561423e+01 3.173032e+01
      vertex -1.520520e+01 3.561424e+01 3.173032e+01
    endloop
  endfacet
  facet normal -5.357972e-04 9.807078e-01 -1.954785e-01
    outer loop
      vertex -1.520520e+01 3.561424e+01 3.173032e+01
      vertex -1.520520e+01 3.701242e+01 3.874497e+01
      vertex -1.055888e+01 3.701242e+01 3.873222e+01
    endloop
  endfacet
  facet normal 5.350047e-04 9.806395e-01 -1.958212e-01
    outer loop
      vertex 1.055872e+01 3.561393e+01 3.173032e+01
      vertex 1.055872e+01 3.701212e+01 3.873222e+01
      vertex 1.523120e+01 3.701211e+01 3.874497e+01
    endloop
  endfacet
  facet normal 6.355299e-07 9.807079e-01 -1.954789e-01
    outer loop
      vertex 1.523120e+01 3.701211e+01 3.874497e+01
      vertex 1.523121e+01 3.561392e+01 3.173032e+01
      vertex 1.055872e+01 3.561393e+01 3.173032e+01
    endloop
  endfacet
  facet normal -1.000000e+00 -1.055491e-06 0.000000e+00
    outer loop
      vertex -9.957591e+00 2.643352e+01 3.873222e+01
      vertex -9.957536e+00 -2.520355e+01 3.873222e+01
      vertex -9.957536e+00 -2.520355e+01 3.874497e+01
    endloop
  endfacet
  facet normal -1.000000e+00 -1.055491e-06 0.000000e+00
    outer loop
      vertex -9.957536e+00 -2.520355e+01 3.874497e+01
      vertex -9.957591e+00 2.643352e+01 3.874497e+01
      vertex -9.957591e+00 2.643352e+01 3.873222e+01
    endloop
  endfacet
  facet normal 1.000000e+00 1.172768e-06 0.000000e+00
    outer loop
      vertex 9.957526e+00 -2.520355e+01 3.873222e+01
      vertex 9.957466e+00 2.643352e+01 3.873222e+01
      vertex 9.957466e+00 2.643352e+01 3.874497e+01
    endloop
  endfacet
  facet normal 1.000000e+00 1.172768e-06 0.000000e+00
    outer loop
      vertex 9.957466e+00 2.643352e+01 3.874497e+01
      vertex 9.957526e+00 -2.520355e+01 3.874497e+01
      vertex 9.957526e+00 -2.520355e+01 3.873222e+01
    endloop
  endfacet
  facet normal -1.000000e+00 -1.370671e-06 5.950974e-07
    outer loop
      vertex -1.055879e+01 -3.705075e+01 0.000000e+00
      vertex -1.055887e+01 2.643352e+01 1.393089e+01
      vertex -1.055887e+01 3.140395e+01 1.393091e+01
    endloop
  endfacet
  facet normal -1.000000e+00 -1.276930e-06 1.344645e-07
    outer loop
      vertex -1.055887e+01 3.140395e+01 1.393091e+01
      vertex -1.055888e+01 3.705073e+01 0.000000e+00
      vertex -1.055879e+01 -3.705075e+01 0.000000e+00
    endloop
  endfacet
  facet normal -9.386373e-01 -2.360015e-07 -3.449059e-01
    outer loop
      vertex -1.055887e+01 3.140395e+01 1.393091e+01
      vertex -1.055887e+01 2.643352e+01 1.393089e+01
      vertex -1.520520e+01 2.643352e+01 2.657557e+01
    endloop
  endfacet
  facet normal -9.386374e-01 0.000000e+00 -3.449058e-01
    outer loop
      vertex -1.520520e+01 2.643352e+01 2.657557e+01
      vertex -1.520520e+01 3.140395e+01 2.657557e+01
      vertex -1.055887e+01 3.140395e+01 1.393091e+01
    endloop
  endfacet
  facet normal -9.377214e-01 -2.607597e-07 -3.473881e-01
    outer loop
      vertex -1.055880e+01 -2.520355e+01 1.391759e+01
      vertex -1.055880e+01 -3.084566e+01 1.391758e+01
      vertex -1.524807e+01 -3.084566e+01 2.657557e+01
    endloop
  endfacet
  facet normal -9.377214e-01 -5.032416e-07 -3.473882e-01
    outer loop
      vertex -1.524807e+01 -3.084566e+01 2.657557e+01
      vertex -1.524808e+01 -2.520356e+01 2.657557e+01
      vertex -1.055880e+01 -2.520355e+01 1.391759e+01
    endloop
  endfacet
  facet normal 1.000000e+00 1.207492e-06 -9.220647e-08
    outer loop
      vertex 1.055872e+01 3.705075e+01 0.000000e+00
      vertex 1.055880e+01 -2.520354e+01 1.391761e+01
      vertex 1.055880e+01 -3.084566e+01 1.391761e+01
    endloop
  endfacet
  facet normal 1.000000e+00 1.205421e-06 -1.023099e-07
    outer loop
      vertex 1.055880e+01 -3.084566e+01 1.391761e+01
      vertex 1.055881e+01 -3.705074e+01 0.000000e+00
      vertex 1.055872e+01 3.705075e+01 0.000000e+00
    endloop
  endfacet
  facet normal 9.377214e-01 6.662152e-07 -3.473883e-01
    outer loop
      vertex 1.055880e+01 -3.084566e+01 1.391761e+01
      vertex 1.055880e+01 -2.520354e+01 1.391761e+01
      vertex 1.524807e+01 -2.520354e+01 2.657557e+01
    endloop
  endfacet
  facet normal 9.377214e-01 2.516204e-07 -3.473881e-01
    outer loop
      vertex 1.524807e+01 -2.520354e+01 2.657557e+01
      vertex 1.524807e+01 -3.084565e+01 2.657557e+01
      vertex 1.055880e+01 -3.084566e+01 1.391761e+01
    endloop
  endfacet
  facet normal 1.000000e+00 1.216752e-06 -5.078629e-08
    outer loop
      vertex 1.055873e+01 2.643352e+01 1.392277e+01
      vertex 1.055880e+01 -2.520354e+01 1.391761e+01
      vertex 1.055872e+01 3.705075e+01 0.000000e+00
    endloop
  endfacet
  facet normal 1.000000e+00 1.218372e-06 -4.955087e-08
    outer loop
      vertex 1.055872e+01 3.705075e+01 0.000000e+00
      vertex 1.055873e+01 3.140395e+01 1.392276e+01
      vertex 1.055873e+01 2.643352e+01 1.392277e+01
    endloop
  endfacet
  facet normal 9.380804e-01 8.776690e-08 -3.464177e-01
    outer loop
      vertex 1.055873e+01 2.643352e+01 1.392277e+01
      vertex 1.055873e+01 3.140395e+01 1.392276e+01
      vertex 1.523120e+01 3.140394e+01 2.657557e+01
    endloop
  endfacet
  facet normal 9.380805e-01 -2.857329e-07 -3.464175e-01
    outer loop
      vertex 1.523120e+01 3.140394e+01 2.657557e+01
      vertex 1.523120e+01 2.643352e+01 2.657557e+01
      vertex 1.055873e+01 2.643352e+01 1.392277e+01
    endloop
  endfacet
  facet normal 0.000000e+00 1.000000e+00 0.000000e+00
    outer loop
      vertex -9.957593e+00 3.701242e+01 3.874497e+01
      vertex -9.957593e+00 3.701242e+01 3.873222e+01
      vertex -1.055888e+01 3.701242e+01 3.873222e+01
    endloop
  endfacet
  facet normal 5.770086e-07 1.000000e+00 -2.721018e-05
    outer loop
      vertex -1.055888e+01 3.701242e+01 3.873222e+01
      vertex -1.520520e+01 3.701242e+01 3.874497e+01
      vertex -9.957593e+00 3.701242e+01 3.874497e+01
    endloop
  endfacet
  facet normal -1.000000e+00 1.349779e-07 0.000000e+00
    outer loop
      vertex 9.957466e+00 3.701212e+01 3.873222e+01
      vertex 9.957465e+00 3.140395e+01 3.873222e+01
      vertex 9.957465e+00 3.140395e+01 3.874497e+01
    endloop
  endfacet
  facet normal -1.000000e+00 1.349779e-07 0.000000e+00
    outer loop
      vertex 9.957465e+00 3.140395e+01 3.874497e+01
      vertex 9.957466e+00 3.701212e+01 3.874497e+01
      vertex 9.957466e+00 3.701212e+01 3.873222e+01
    endloop
  endfacet
  facet normal 1.000000e+00 2.699415e-07 0.000000e+00
    outer loop
      vertex -9.957592e+00 3.140395e+01 3.874497e+01
      vertex -9.957592e+00 3.140395e+01 3.873222e+01
      vertex -9.957593e+00 3.701242e+01 3.873222e+01
    endloop
  endfacet
  facet normal 1.000000e+00 2.699415e-07 0.000000e+00
    outer loop
      vertex -9.957593e+00 3.701242e+01 3.873222e+01
      vertex -9.957593e+00 3.701242e+01 3.874497e+01
      vertex -9.957592e+00 3.140395e+01 3.874497e+01
    endloop
  endfacet
  facet normal 0.000000e+00 1.000000e+00 0.000000e+00
    outer loop
      vertex 1.055872e+01 3.701212e+01 3.873222e+01
      vertex 9.957466e+00 3.701212e+01 3.873222e+01
      vertex 9.957466e+00 3.701212e+01 3.874497e+01
    endloop
  endfacet
  facet normal 5.741500e-07 1.000000e+00 2.707426e-05
    outer loop
      vertex 9.957466e+00 3.701212e+01 3.874497e+01
      vertex 1.523120e+01 3.701211e+01 3.874497e+01
      vertex 1.055872e+01 3.701212e+01 3.873222e+01
    endloop
  endfacet
  facet normal 0.000000e+00 -1.000000e+00 0.000000e+00
    outer loop
      vertex -1.055887e+01 2.643352e+01 1.393089e+01
      vertex -1.055886e+01 2.643352e+01 3.873222e+01
      vertex -1.520520e+01 2.643352e+01 3.874497e+01
    endloop
  endfacet
  facet normal 0.000000e+00 -1.000000e+00 0.000000e+00
    outer loop
      vertex -1.520520e+01 2.643352e+01 3.874497e+01
      vertex -1.520520e+01 2.643352e+01 2.657557e+01
      vertex -1.055887e+01 2.643352e+01 1.393089e+01
    endloop
  endfacet
  facet normal -6.604187e-01 -7.099220e-01 -2.446588e-01
    outer loop
      vertex -1.524807e+01 -3.084566e+01 2.657557e+01
      vertex -1.055880e+01 -3.084566e+01 1.391758e+01
      vertex -1.055879e+01 -3.698443e+01 3.173032e+01
    endloop
  endfacet
  facet normal -0.000000e+00 -6.430600e-01 -7.658159e-01
    outer loop
      vertex -1.055879e+01 -3.698443e+01 3.173032e+01
      vertex -1.524807e+01 -3.698443e+01 3.173032e+01
      vertex -1.524807e+01 -3.084566e+01 2.657557e+01
    endloop
  endfacet
  facet normal -1.000000e+00 -1.260177e-06 9.156515e-08
    outer loop
      vertex -1.055886e+01 2.643352e+01 3.873222e+01
      vertex -1.055887e+01 2.643352e+01 1.393089e+01
      vertex -1.055879e+01 -3.705075e+01 0.000000e+00
    endloop
  endfacet
  facet normal -1.000000e+00 -1.124796e-06 -1.303315e-07
    outer loop
      vertex -1.055879e+01 -3.705075e+01 0.000000e+00
      vertex -1.055880e+01 -2.520355e+01 1.391759e+01
      vertex -1.055886e+01 2.643352e+01 3.873222e+01
    endloop
  endfacet
  facet normal -9.685679e-07 1.000000e+00 5.909305e-14
    outer loop
      vertex 1.055880e+01 -2.520354e+01 1.391761e+01
      vertex 1.055880e+01 -2.520354e+01 3.873222e+01
      vertex 1.524807e+01 -2.520354e+01 3.874497e+01
    endloop
  endfacet
  facet normal -9.685675e-07 1.000000e+00 0.000000e+00
    outer loop
      vertex 1.524807e+01 -2.520354e+01 3.874497e+01
      vertex 1.524807e+01 -2.520354e+01 2.657557e+01
      vertex 1.055880e+01 -2.520354e+01 1.391761e+01
    endloop
  endfacet
  facet normal -6.480337e-07 -1.000000e+00 5.931788e-14
    outer loop
      vertex 1.055874e+01 2.643352e+01 3.873222e+01
      vertex 1.055873e+01 2.643352e+01 1.392277e+01
      vertex 1.523120e+01 2.643352e+01 2.657557e+01
    endloop
  endfacet
  facet normal -6.480339e-07 -1.000000e+00 0.000000e+00
    outer loop
      vertex 1.523120e+01 2.643352e+01 2.657557e+01
      vertex 1.523120e+01 2.643352e+01 3.874497e+01
      vertex 1.055874e+01 2.643352e+01 3.873222e+01
    endloop
  endfacet
  facet normal 5.287934e-01 8.259815e-01 -1.952745e-01
    outer loop
      vertex 1.523120e+01 3.140394e+01 2.657557e+01
      vertex 1.055873e+01 3.140395e+01 1.392276e+01
      vertex 1.055872e+01 3.561393e+01 3.173032e+01
    endloop
  endfacet
  facet normal 5.019089e-07 7.745128e-01 -6.325582e-01
    outer loop
      vertex 1.055872e+01 3.561393e+01 3.173032e+01
      vertex 1.523121e+01 3.561392e+01 3.173032e+01
      vertex 1.523120e+01 3.140394e+01 2.657557e+01
    endloop
  endfacet
  facet normal 0.000000e+00 0.000000e+00 1.000000e+00
    outer loop
      vertex -1.055881e+01 -2.520355e+01 3.873222e+01
      vertex -9.957536e+00 -2.520355e+01 3.873222e+01
      vertex -9.957591e+00 2.643352e+01 3.873222e+01
    endloop
  endfacet
  facet normal 0.000000e+00 0.000000e+00 1.000000e+00
    outer loop
      vertex -9.957591e+00 2.643352e+01 3.873222e+01
      vertex -1.055886e+01 2.643352e+01 3.873222e+01
      vertex -1.055881e+01 -2.520355e+01 3.873222e+01
    endloop
  endfacet
  facet normal -1.000000e+00 0.000000e+00 1.081106e-07
    outer loop
      vertex -1.055888e+01 3.561423e+01 3.173032e+01
      vertex -1.055888e+01 3.701242e+01 3.873222e+01
      vertex -1.055888e+01 3.705075e+01 3.873222e+01
    endloop
  endfacet
  facet normal -1.000000e+00 -3.303971e-07 1.758954e-07
    outer loop
      vertex -1.055888e+01 3.705075e+01 3.873222e+01
      vertex -1.055888e+01 3.705073e+01 0.000000e+00
      vertex -1.055888e+01 3.561423e+01 3.173032e+01
    endloop
  endfacet
  facet normal 1.000000e+00 0.000000e+00 2.162213e-07
    outer loop
      vertex 1.055872e+01 3.705074e+01 3.873222e+01
      vertex 1.055872e+01 3.701212e+01 3.873222e+01
      vertex 1.055872e+01 3.561393e+01 3.173032e+01
    endloop
  endfacet
  facet normal 1.000000e+00 1.339413e-06 -5.863163e-08
    outer loop
      vertex 1.055872e+01 3.561393e+01 3.173032e+01
      vertex 1.055872e+01 3.705075e+01 0.000000e+00
      vertex 1.055872e+01 3.705074e+01 3.873222e+01
    endloop
  endfacet
  facet normal 0.000000e+00 -1.000000e+00 0.000000e+00
    outer loop
      vertex 9.957466e+00 2.643352e+01 3.874497e+01
      vertex 9.957466e+00 2.643352e+01 3.873222e+01
      vertex 1.055874e+01 2.643352e+01 3.873222e+01
    endloop
  endfacet
  facet normal -5.741500e-07 -1.000000e+00 -2.707487e-05
    outer loop
      vertex 1.055874e+01 2.643352e+01 3.873222e+01
      vertex 1.523120e+01 2.643352e+01 3.874497e+01
      vertex 9.957466e+00 2.643352e+01 3.874497e+01
    endloop
  endfacet
  facet normal 0.000000e+00 0.000000e+00 1.000000e+00
    outer loop
      vertex 9.957526e+00 -2.520355e+01 3.873222e+01
      vertex 1.055880e+01 -2.520354e+01 3.873222e+01
      vertex 1.055874e+01 2.643352e+01 3.873222e+01
    endloop
  endfacet
  facet normal 0.000000e+00 0.000000e+00 1.000000e+00
    outer loop
      vertex 1.055874e+01 2.643352e+01 3.873222e+01
      vertex 9.957466e+00 2.643352e+01 3.873222e+01
      vertex 9.957526e+00 -2.520355e+01 3.873222e+01
    endloop
  endfacet
  facet normal 1.000000e+00 1.216753e-06 -6.101074e-08
    outer loop
      vertex 1.055880e+01 -2.520354e+01 3.873222e+01
      vertex 1.055880e+01 -2.520354e+01 1.391761e+01
      vertex 1.055873e+01 2.643352e+01 1.392277e+01
    endloop
  endfacet
  facet normal 1.000000e+00 1.202088e-06 -9.153518e-08
    outer loop
      vertex 1.055873e+01 2.643352e+01 1.392277e+01
      vertex 1.055874e+01 2.643352e+01 3.873222e+01
      vertex 1.055880e+01 -2.520354e+01 3.873222e+01
    endloop
  endfacet
  facet normal -1.000000e+00 1.057681e-05 -8.304173e-07
    outer loop
      vertex 8.634164e+00 3.500216e+01 3.159165e+01
      vertex 8.634189e+00 3.500217e+01 1.510052e+00
      vertex 8.633451e+00 -3.484982e+01 1.510052e+00
    endloop
  endfacet
  facet normal -1.000000e+00 1.055514e-05 -7.800859e-07
    outer loop
      vertex 8.633451e+00 -3.484982e+01 1.510052e+00
      vertex 8.633427e+00 -3.484984e+01 3.159164e+01
      vertex 8.634164e+00 3.500216e+01 3.159165e+01
    endloop
  endfacet
  facet normal 1.000000e+00 -1.057682e-05 8.052476e-07
    outer loop
      vertex -8.633520e+00 3.500234e+01 3.159164e+01
      vertex -8.634259e+00 -3.484964e+01 3.159163e+01
      vertex -8.634235e+00 -3.484962e+01 1.510032e+00
    endloop
  endfacet
  facet normal 1.000000e+00 -1.056598e-05 7.800785e-07
    outer loop
      vertex -8.634235e+00 -3.484962e+01 1.510032e+00
      vertex -8.633497e+00 3.500237e+01 1.510057e+00
      vertex -8.633520e+00 3.500234e+01 3.159164e+01
    endloop
  endfacet
  facet normal -1.139789e-06 -3.467687e-07 1.000000e+00
    outer loop
      vertex -8.633497e+00 3.500237e+01 1.510057e+00
      vertex -8.634235e+00 -3.484962e+01 1.510032e+00
      vertex 8.633451e+00 -3.484982e+01 1.510052e+00
    endloop
  endfacet
  facet normal 2.630274e-07 -2.781991e-12 1.000000e+00
    outer loop
      vertex 8.633451e+00 -3.484982e+01 1.510052e+00
      vertex 8.634189e+00 3.500217e+01 1.510052e+00
      vertex -8.633497e+00 3.500237e+01 1.510057e+00
    endloop
  endfacet
  facet normal -1.174856e-05 -1.000000e+00 -1.107234e-06
    outer loop
      vertex -8.633520e+00 3.500234e+01 3.159164e+01
      vertex -8.633497e+00 3.500237e+01 1.510057e+00
      vertex 8.634189e+00 3.500217e+01 1.510052e+00
    endloop
  endfacet
  facet normal -9.995040e-06 -1.000000e+00 -1.006651e-07
    outer loop
      vertex 8.634189e+00 3.500217e+01 1.510052e+00
      vertex 8.634164e+00 3.500216e+01 3.159165e+01
      vertex -8.633520e+00 3.500234e+01 3.159164e+01
    endloop
  endfacet
  facet normal 1.157320e-05 1.000000e+00 4.026362e-07
    outer loop
      vertex 8.633427e+00 -3.484984e+01 3.159164e+01
      vertex 8.633451e+00 -3.484982e+01 1.510052e+00
      vertex -8.634235e+00 -3.484962e+01 1.510032e+00
    endloop
  endfacet
  facet normal 1.122250e-05 1.000000e+00 6.039495e-07
    outer loop
      vertex -8.634235e+00 -3.484962e+01 1.510032e+00
      vertex -8.634259e+00 -3.484964e+01 3.159163e+01
      vertex 8.633427e+00 -3.484984e+01 3.159164e+01
    endloop
  endfacet
  facet normal 0.000000e+00 0.000000e+00 1.000000e+00
    outer loop
      vertex -9.957592e+00 3.140395e+01 3.873222e+01
      vertex -8.633560e+00 3.140395e+01 3.873222e+01
      vertex -8.633523e+00 3.500234e+01 3.873222e+01
    endloop
  endfacet
  facet normal 0.000000e+00 0.000000e+00 1.000000e+00
    outer loop
      vertex -8.633523e+00 3.500234e+01 3.873222e+01
      vertex -9.957593e+00 3.701242e+01 3.873222e+01
      vertex -9.957592e+00 3.140395e+01 3.873222e+01
    endloop
  endfacet
  facet normal 2.286892e-06 1.000000e+00 0.000000e+00
    outer loop
      vertex -8.633560e+00 3.140395e+01 3.873222e+01
      vertex -9.957592e+00 3.140395e+01 3.873222e+01
      vertex -9.957592e+00 3.140395e+01 3.874497e+01
    endloop
  endfacet
  facet normal 2.286892e-06 1.000000e+00 0.000000e+00
    outer loop
      vertex -9.957592e+00 3.140395e+01 3.874497e+01
      vertex -8.633560e+00 3.140395e+01 3.874497e+01
      vertex -8.633560e+00 3.140395e+01 3.873222e+01
    endloop
  endfacet
  facet normal 0.000000e+00 1.000000e+00 -4.792273e-07
    outer loop
      vertex -1.055888e+01 3.705073e+01 0.000000e+00
      vertex 6.665535e+00 3.705074e+01 3.159165e+01
      vertex 8.634183e+00 3.705074e+01 3.159165e+01
    endloop
  endfacet
  facet normal -8.603010e-07 1.000000e+00 4.343662e-08
    outer loop
      vertex 8.634183e+00 3.705074e+01 3.159165e+01
      vertex 1.055872e+01 3.705075e+01 0.000000e+00
      vertex -1.055888e+01 3.705073e+01 0.000000e+00
    endloop
  endfacet
  facet normal -2.900532e-07 1.000000e+00 7.817566e-08
    outer loop
      vertex 1.055872e+01 3.705074e+01 3.873222e+01
      vertex 1.055872e+01 3.705075e+01 0.000000e+00
      vertex 8.634183e+00 3.705074e+01 3.159165e+01
    endloop
  endfacet
  facet normal 1.573318e-06 1.000000e+00 -4.240435e-07
    outer loop
      vertex 8.634183e+00 3.705074e+01 3.159165e+01
      vertex 8.634181e+00 3.705075e+01 3.873222e+01
      vertex 1.055872e+01 3.705074e+01 3.873222e+01
    endloop
  endfacet
  facet normal 2.288085e-06 1.000000e+00 0.000000e+00
    outer loop
      vertex 9.957465e+00 3.140395e+01 3.873222e+01
      vertex 8.634124e+00 3.140395e+01 3.873222e+01
      vertex 8.634124e+00 3.140395e+01 3.874497e+01
    endloop
  endfacet
  facet normal 2.288085e-06 1.000000e+00 0.000000e+00
    outer loop
      vertex 8.634124e+00 3.140395e+01 3.874497e+01
      vertex 9.957465e+00 3.140395e+01 3.874497e+01
      vertex 9.957465e+00 3.140395e+01 3.873222e+01
    endloop
  endfacet
  facet normal 0.000000e+00 1.000000e+00 -8.480872e-07
    outer loop
      vertex -1.055888e+01 3.705075e+01 3.873222e+01
      vertex -8.633504e+00 3.705075e+01 3.873222e+01
      vertex -8.633501e+00 3.705075e+01 3.159164e+01
    endloop
  endfacet
  facet normal 8.258538e-07 1.000000e+00 -6.254053e-07
    outer loop
      vertex -8.633501e+00 3.705075e+01 3.159164e+01
      vertex -1.055888e+01 3.705073e+01 0.000000e+00
      vertex -1.055888e+01 3.705075e+01 3.873222e+01
    endloop
  endfacet
  facet normal 0.000000e+00 0.000000e+00 1.000000e+00
    outer loop
      vertex -8.634158e+00 -2.520355e+01 3.874497e+01
      vertex -8.633613e+00 2.643352e+01 3.874497e+01
      vertex -9.957591e+00 2.643352e+01 3.874497e+01
    endloop
  endfacet
  facet normal 0.000000e+00 0.000000e+00 1.000000e+00
    outer loop
      vertex -9.957591e+00 2.643352e+01 3.874497e+01
      vertex -9.957536e+00 -2.520355e+01 3.874497e+01
      vertex -8.634158e+00 -2.520355e+01 3.874497e+01
    endloop
  endfacet
  facet normal 1.000000e+00 -1.057682e-05 8.244290e-08
    outer loop
      vertex -8.634259e+00 -3.484964e+01 3.159163e+01
      vertex -8.633520e+00 3.500234e+01 3.159164e+01
      vertex -8.634158e+00 -2.520355e+01 3.874497e+01
    endloop
  endfacet
  facet normal 1.000000e+00 -1.073394e-05 2.943185e-07
    outer loop
      vertex -8.634158e+00 -2.520355e+01 3.874497e+01
      vertex -8.634218e+00 -3.084566e+01 3.873222e+01
      vertex -8.634259e+00 -3.484964e+01 3.159163e+01
    endloop
  endfacet
  facet normal 1.000000e+00 -1.055077e-05 3.016754e-07
    outer loop
      vertex -8.634158e+00 -2.520355e+01 3.874497e+01
      vertex -8.633520e+00 3.500234e+01 3.159164e+01
      vertex -8.633560e+00 3.140395e+01 3.873222e+01
    endloop
  endfacet
  facet normal 1.000000e+00 -1.055491e-05 -1.810752e-05
    outer loop
      vertex -8.633560e+00 3.140395e+01 3.873222e+01
      vertex -8.633613e+00 2.643352e+01 3.874497e+01
      vertex -8.634158e+00 -2.520355e+01 3.874497e+01
    endloop
  endfacet
  facet normal 1.534614e-10 -1.342064e-04 1.000000e+00
    outer loop
      vertex 9.957526e+00 -2.520355e+01 3.874497e+01
      vertex 8.633527e+00 -2.520355e+01 3.874497e+01
      vertex 8.633363e+00 -3.084396e+01 3.874421e+01
    endloop
  endfacet
  facet normal -5.716647e-04 -2.300937e-10 9.999998e-01
    outer loop
      vertex 8.633363e+00 -3.084396e+01 3.874421e+01
      vertex 9.957529e+00 -3.084566e+01 3.874497e+01
      vertex 9.957526e+00 -2.520355e+01 3.874497e+01
    endloop
  endfacet
  facet normal 0.000000e+00 0.000000e+00 1.000000e+00
    outer loop
      vertex 8.634124e+00 3.140395e+01 3.874497e+01
      vertex 8.634072e+00 2.643352e+01 3.874497e+01
      vertex 9.957466e+00 2.643352e+01 3.874497e+01
    endloop
  endfacet
  facet normal 0.000000e+00 0.000000e+00 1.000000e+00
    outer loop
      vertex 9.957466e+00 2.643352e+01 3.874497e+01
      vertex 9.957465e+00 3.140395e+01 3.874497e+01
      vertex 8.634124e+00 3.140395e+01 3.874497e+01
    endloop
  endfacet
  facet normal -1.000000e+00 1.050846e-05 1.331110e-07
    outer loop
      vertex 8.633427e+00 -3.484984e+01 3.159164e+01
      vertex 8.634072e+00 2.643352e+01 3.874497e+01
      vertex 8.634124e+00 3.140395e+01 3.874497e+01
    endloop
  endfacet
  facet normal -1.000000e+00 1.055514e-05 -2.991938e-07
    outer loop
      vertex 8.634124e+00 3.140395e+01 3.874497e+01
      vertex 8.634164e+00 3.500216e+01 3.159165e+01
      vertex 8.633427e+00 -3.484984e+01 3.159164e+01
    endloop
  endfacet
  facet normal 0.000000e+00 0.000000e+00 1.000000e+00
    outer loop
      vertex -9.957593e+00 3.701242e+01 3.873222e+01
      vertex -8.633520e+00 3.533430e+01 3.873222e+01
      vertex -8.633504e+00 3.705075e+01 3.873222e+01
    endloop
  endfacet
  facet normal 0.000000e+00 0.000000e+00 1.000000e+00
    outer loop
      vertex -8.633504e+00 3.705075e+01 3.873222e+01
      vertex -1.055888e+01 3.705075e+01 3.873222e+01
      vertex -9.957593e+00 3.701242e+01 3.873222e+01
    endloop
  endfacet
  facet normal 1.000000e+00 -9.238620e-06 3.180405e-07
    outer loop
      vertex -8.633520e+00 3.500234e+01 3.159164e+01
      vertex -8.633501e+00 3.705075e+01 3.159164e+01
      vertex -8.633504e+00 3.705075e+01 3.873222e+01
    endloop
  endfacet
  facet normal 1.000000e+00 -9.702332e-06 4.510657e-07
    outer loop
      vertex -8.633504e+00 3.705075e+01 3.873222e+01
      vertex -8.633520e+00 3.533430e+01 3.873222e+01
      vertex -8.633520e+00 3.500234e+01 3.159164e+01
    endloop
  endfacet
  facet normal 2.585330e-09 -2.259885e-03 9.999974e-01
    outer loop
      vertex -8.634218e+00 -3.084566e+01 3.873222e+01
      vertex -8.634158e+00 -2.520355e+01 3.874497e+01
      vertex -9.957536e+00 -2.520355e+01 3.874497e+01
    endloop
  endfacet
  facet normal 9.634849e-03 1.292669e-09 9.999536e-01
    outer loop
      vertex -9.957536e+00 -2.520355e+01 3.874497e+01
      vertex -9.957536e+00 -3.084566e+01 3.874497e+01
      vertex -8.634218e+00 -3.084566e+01 3.873222e+01
    endloop
  endfacet
  facet normal 0.000000e+00 0.000000e+00 1.000000e+00
    outer loop
      vertex -9.957591e+00 2.643352e+01 3.874497e+01
      vertex -8.633613e+00 2.643352e+01 3.874497e+01
      vertex -8.633560e+00 3.140395e+01 3.874497e+01
    endloop
  endfacet
  facet normal 0.000000e+00 0.000000e+00 1.000000e+00
    outer loop
      vertex -8.633560e+00 3.140395e+01 3.874497e+01
      vertex -9.957592e+00 3.140395e+01 3.874497e+01
      vertex -9.957591e+00 2.643352e+01 3.874497e+01
    endloop
  endfacet
  facet normal 0.000000e+00 0.000000e+00 1.000000e+00
    outer loop
      vertex 8.634072e+00 2.643352e+01 3.874497e+01
      vertex 8.633527e+00 -2.520355e+01 3.874497e+01
      vertex 9.957526e+00 -2.520355e+01 3.874497e+01
    endloop
  endfacet
  facet normal 0.000000e+00 0.000000e+00 1.000000e+00
    outer loop
      vertex 9.957526e+00 -2.520355e+01 3.874497e+01
      vertex 9.957466e+00 2.643352e+01 3.874497e+01
      vertex 8.634072e+00 2.643352e+01 3.874497e+01
    endloop
  endfacet
  facet normal 0.000000e+00 0.000000e+00 1.000000e+00
    outer loop
      vertex 8.634181e+00 3.705075e+01 3.873222e+01
      vertex 8.634163e+00 3.500216e+01 3.873222e+01
      vertex 9.957465e+00 3.140395e+01 3.873222e+01
    endloop
  endfacet
  facet normal 0.000000e+00 0.000000e+00 1.000000e+00
    outer loop
      vertex 9.957465e+00 3.140395e+01 3.873222e+01
      vertex 1.055872e+01 3.705074e+01 3.873222e+01
      vertex 8.634181e+00 3.705075e+01 3.873222e+01
    endloop
  endfacet
  facet normal -1.000000e+00 9.237855e-06 -3.180369e-07
    outer loop
      vertex 8.634181e+00 3.705075e+01 3.873222e+01
      vertex 8.634183e+00 3.705074e+01 3.159165e+01
      vertex 8.634164e+00 3.500216e+01 3.159165e+01
    endloop
  endfacet
  facet normal -1.000000e+00 8.868315e-06 -2.120182e-07
    outer loop
      vertex 8.634164e+00 3.500216e+01 3.159165e+01
      vertex 8.634163e+00 3.500216e+01 3.873222e+01
      vertex 8.634181e+00 3.705075e+01 3.873222e+01
    endloop
  endfacet
  facet normal 1.122250e-05 1.000000e+00 2.264320e-12
    outer loop
      vertex -4.174007e-04 -3.484974e+01 3.873222e+01
      vertex 8.633427e+00 -3.484984e+01 3.159164e+01
      vertex -8.634259e+00 -3.484964e+01 3.159163e+01
    endloop
  endfacet
  facet normal 1.439529e-05 1.000000e+00 1.526055e-12
    outer loop
      vertex -8.634260e+00 -3.484964e+01 3.873222e+01
      vertex -5.268807e+00 -3.484969e+01 3.873222e+01
      vertex -8.634259e+00 -3.484964e+01 3.159163e+01
    endloop
  endfacet
  facet normal 9.195724e-06 1.000000e+00 2.450623e-06
    outer loop
      vertex -5.268807e+00 -3.484969e+01 3.873222e+01
      vertex -4.174007e-04 -3.484974e+01 3.873222e+01
      vertex -8.634259e+00 -3.484964e+01 3.159163e+01
    endloop
  endfacet
  facet normal 9.195724e-06 1.000000e+00 -2.450621e-06
    outer loop
      vertex -4.174007e-04 -3.484974e+01 3.873222e+01
      vertex 5.267972e+00 -3.484979e+01 3.873222e+01
      vertex 8.633427e+00 -3.484984e+01 3.159164e+01
    endloop
  endfacet
  facet normal 1.439529e-05 1.000000e+00 4.578170e-12
    outer loop
      vertex 5.267972e+00 -3.484979e+01 3.873222e+01
      vertex 8.633425e+00 -3.484984e+01 3.873222e+01
      vertex 8.633427e+00 -3.484984e+01 3.159164e+01
    endloop
  endfacet
  facet normal 1.000000e+00 3.161172e-06 -7.817688e-08
    outer loop
      vertex 1.055881e+01 -3.705074e+01 0.000000e+00
      vertex 1.055881e+01 -3.698442e+01 3.173032e+01
      vertex 1.055881e+01 -3.705073e+01 3.873222e+01
    endloop
  endfacet
  facet normal -1.000000e+00 6.322292e-06 -1.563542e-07
    outer loop
      vertex -1.055879e+01 -3.705075e+01 0.000000e+00
      vertex -1.055879e+01 -3.705073e+01 3.873222e+01
      vertex -1.055879e+01 -3.698443e+01 3.173032e+01
    endloop
  endfacet
  facet normal -0.000000e+00 -9.999552e-01 -9.468770e-03
    outer loop
      vertex -1.055879e+01 -3.698443e+01 3.173032e+01
      vertex -1.055879e+01 -3.705073e+01 3.873222e+01
      vertex -1.524807e+01 -3.698443e+01 3.173032e+01
    endloop
  endfacet
  facet normal -1.413771e-02 -9.999000e-01 0.000000e+00
    outer loop
      vertex -1.055879e+01 -3.705073e+01 3.873222e+01
      vertex -1.524807e+01 -3.698443e+01 3.874497e+01
      vertex -1.524807e+01 -3.698443e+01 3.173032e+01
    endloop
  endfacet
  facet normal 6.456836e-07 -9.999552e-01 -9.468770e-03
    outer loop
      vertex 1.055881e+01 -3.698442e+01 3.173032e+01
      vertex 1.524808e+01 -3.698442e+01 3.173032e+01
      vertex 1.055881e+01 -3.705073e+01 3.873222e+01
    endloop
  endfacet
  facet normal 1.413840e-02 -9.999000e-01 0.000000e+00
    outer loop
      vertex 1.055881e+01 -3.705073e+01 3.873222e+01
      vertex 1.524808e+01 -3.698442e+01 3.173032e+01
      vertex 1.524808e+01 -3.698442e+01 3.874497e+01
    endloop
  endfacet
  facet normal 4.301506e-07 -1.000000e+00 4.299661e-07
    outer loop
      vertex 9.914512e-06 -3.705073e+01 3.873222e+01
      vertex -1.055879e+01 -3.705075e+01 0.000000e+00
      vertex 1.055881e+01 -3.705074e+01 0.000000e+00
    endloop
  endfacet
  facet normal 5.735340e-07 -1.000000e+00 3.908781e-07
    outer loop
      vertex 1.055881e+01 -3.705073e+01 3.873222e+01
      vertex 5.279411e+00 -3.705073e+01 3.873222e+01
      vertex 1.055881e+01 -3.705074e+01 0.000000e+00
    endloop
  endfacet
  facet normal 0.000000e+00 -1.000000e+00 3.127026e-07
    outer loop
      vertex 5.279411e+00 -3.705073e+01 3.873222e+01
      vertex 9.914512e-06 -3.705073e+01 3.873222e+01
      vertex 1.055881e+01 -3.705074e+01 0.000000e+00
    endloop
  endfacet
  facet normal 5.735340e-07 -1.000000e+00 3.908783e-07
    outer loop
      vertex 9.914512e-06 -3.705073e+01 3.873222e+01
      vertex -5.279391e+00 -3.705073e+01 3.873222e+01
      vertex -1.055879e+01 -3.705075e+01 0.000000e+00
    endloop
  endfacet
  facet normal 0.000000e+00 -1.000000e+00 4.690539e-07
    outer loop
      vertex -5.279391e+00 -3.705073e+01 3.873222e+01
      vertex -1.055879e+01 -3.705073e+01 3.873222e+01
      vertex -1.055879e+01 -3.705075e+01 0.000000e+00
    endloop
  endfacet
  facet normal 0.000000e+00 0.000000e+00 1.000000e+00
    outer loop
      vertex -4.174007e-04 -3.484974e+01 3.873222e+01
      vertex -5.268807e+00 -3.484969e+01 3.873222e+01
      vertex -5.279391e+00 -3.705073e+01 3.873222e+01
    endloop
  endfacet
  facet normal 0.000000e+00 0.000000e+00 1.000000e+00
    outer loop
      vertex -5.279391e+00 -3.705073e+01 3.873222e+01
      vertex 9.914512e-06 -3.705073e+01 3.873222e+01
      vertex -4.174007e-04 -3.484974e+01 3.873222e+01
    endloop
  endfacet
  facet normal 0.000000e+00 0.000000e+00 1.000000e+00
    outer loop
      vertex -4.174007e-04 -3.484974e+01 3.873222e+01
      vertex 9.914512e-06 -3.705073e+01 3.873222e+01
      vertex 5.279411e+00 -3.705073e+01 3.873222e+01
    endloop
  endfacet
  facet normal 0.000000e+00 0.000000e+00 1.000000e+00
    outer loop
      vertex 5.279411e+00 -3.705073e+01 3.873222e+01
      vertex 5.267972e+00 -3.484979e+01 3.873222e+01
      vertex -4.174007e-04 -3.484974e+01 3.873222e+01
    endloop
  endfacet
  facet normal 5.079459e-07 -8.875108e-01 4.607869e-01
    outer loop
      vertex -1.055879e+01 -3.705073e+01 3.873222e+01
      vertex -9.957531e+00 -3.698443e+01 3.885993e+01
      vertex -1.524807e+01 -3.698443e+01 3.885993e+01
    endloop
  endfacet
  facet normal -1.413771e-02 -9.999000e-01 -0.000000e+00
    outer loop
      vertex -1.524807e+01 -3.698443e+01 3.885993e+01
      vertex -1.524807e+01 -3.698443e+01 3.874497e+01
      vertex -1.055879e+01 -3.705073e+01 3.873222e+01
    endloop
  endfacet
  facet normal 1.413840e-02 -9.999000e-01 0.000000e+00
    outer loop
      vertex 1.055881e+01 -3.705073e+01 3.873222e+01
      vertex 1.524808e+01 -3.698442e+01 3.874497e+01
      vertex 1.524808e+01 -3.698442e+01 3.885828e+01
    endloop
  endfacet
  facet normal 5.065401e-07 -8.850542e-01 4.654880e-01
    outer loop
      vertex 1.524808e+01 -3.698442e+01 3.885828e+01
      vertex 9.957537e+00 -3.698442e+01 3.885828e+01
      vertex 1.055881e+01 -3.705073e+01 3.873222e+01
    endloop
  endfacet
  facet normal 0.000000e+00 0.000000e+00 -1.000000e+00
    outer loop
      vertex 9.957537e+00 -3.698442e+01 3.885828e+01
      vertex 6.322131e+00 -3.698442e+01 3.885828e+01
      vertex 6.322123e+00 -3.084566e+01 3.885828e+01
    endloop
  endfacet
  facet normal 0.000000e+00 0.000000e+00 -1.000000e+00
    outer loop
      vertex 6.322123e+00 -3.084566e+01 3.885828e+01
      vertex 9.957529e+00 -3.084566e+01 3.885828e+01
      vertex 9.957537e+00 -3.698442e+01 3.885828e+01
    endloop
  endfacet
  facet normal -2.051997e-01 -2.783377e-07 -9.787201e-01
    outer loop
      vertex 1.055881e+01 -3.705073e+01 3.873222e+01
      vertex 9.957537e+00 -3.698442e+01 3.885828e+01
      vertex 9.957529e+00 -3.084566e+01 3.885828e+01
    endloop
  endfacet
  facet normal -9.953378e-01 -9.645034e-02 -0.000000e+00
    outer loop
      vertex 9.957529e+00 -3.084566e+01 3.885828e+01
      vertex 9.957529e+00 -3.084566e+01 3.874497e+01
      vertex 1.055881e+01 -3.705073e+01 3.873222e+01
    endloop
  endfacet
  facet normal -1.000000e+00 -1.549435e-05 -3.180326e-07
    outer loop
      vertex 8.633363e+00 -3.084396e+01 3.874421e+01
      vertex 8.633427e+00 -3.484984e+01 3.159164e+01
      vertex 8.633425e+00 -3.484984e+01 3.873222e+01
    endloop
  endfacet
  facet normal -5.755097e-04 -2.993989e-03 9.999954e-01
    outer loop
      vertex 8.633363e+00 -3.084396e+01 3.874421e+01
      vertex 8.633425e+00 -3.484984e+01 3.873222e+01
      vertex 9.957529e+00 -3.084566e+01 3.874497e+01
    endloop
  endfacet
  facet normal -2.641466e-03 -2.310812e-03 9.999938e-01
    outer loop
      vertex 8.633425e+00 -3.484984e+01 3.873222e+01
      vertex 1.055881e+01 -3.705073e+01 3.873222e+01
      vertex 9.957529e+00 -3.084566e+01 3.874497e+01
    endloop
  endfacet
  facet normal 0.000000e+00 0.000000e+00 1.000000e+00
    outer loop
      vertex 8.633425e+00 -3.484984e+01 3.873222e+01
      vertex 5.279411e+00 -3.705073e+01 3.873222e+01
      vertex 1.055881e+01 -3.705073e+01 3.873222e+01
    endloop
  endfacet
  facet normal 0.000000e+00 0.000000e+00 1.000000e+00
    outer loop
      vertex 8.633425e+00 -3.484984e+01 3.873222e+01
      vertex 5.267972e+00 -3.484979e+01 3.873222e+01
      vertex 5.279411e+00 -3.705073e+01 3.873222e+01
    endloop
  endfacet
  facet normal 0.000000e+00 0.000000e+00 1.000000e+00
    outer loop
      vertex -8.634260e+00 -3.484964e+01 3.873222e+01
      vertex -5.279391e+00 -3.705073e+01 3.873222e+01
      vertex -5.268807e+00 -3.484969e+01 3.873222e+01
    endloop
  endfacet
  facet normal 0.000000e+00 0.000000e+00 1.000000e+00
    outer loop
      vertex -1.055879e+01 -3.705073e+01 3.873222e+01
      vertex -5.279391e+00 -3.705073e+01 3.873222e+01
      vertex -8.634260e+00 -3.484964e+01 3.873222e+01
    endloop
  endfacet
  facet normal 9.634849e-03 -1.001843e-07 9.999536e-01
    outer loop
      vertex -8.634218e+00 -3.084566e+01 3.873222e+01
      vertex -9.957536e+00 -3.084566e+01 3.874497e+01
      vertex -8.634260e+00 -3.484964e+01 3.873222e+01
    endloop
  endfacet
  facet normal 2.643039e-03 -2.310952e-03 9.999938e-01
    outer loop
      vertex -1.055879e+01 -3.705073e+01 3.873222e+01
      vertex -8.634260e+00 -3.484964e+01 3.873222e+01
      vertex -9.957536e+00 -3.084566e+01 3.874497e+01
    endloop
  endfacet
  facet normal 9.953383e-01 -9.644609e-02 0.000000e+00
    outer loop
      vertex -1.055879e+01 -3.705073e+01 3.873222e+01
      vertex -9.957536e+00 -3.084566e+01 3.874497e+01
      vertex -9.957536e+00 -3.084566e+01 3.885993e+01
    endloop
  endfacet
  facet normal 2.077656e-01 1.537190e-07 -9.781786e-01
    outer loop
      vertex -9.957536e+00 -3.084566e+01 3.885993e+01
      vertex -9.957531e+00 -3.698443e+01 3.885993e+01
      vertex -1.055879e+01 -3.705073e+01 3.873222e+01
    endloop
  endfacet
  facet normal 0.000000e+00 0.000000e+00 -1.000000e+00
    outer loop
      vertex -9.957536e+00 -3.084566e+01 3.885993e+01
      vertex -6.181442e+00 -3.084566e+01 3.885993e+01
      vertex -6.181439e+00 -3.698443e+01 3.885993e+01
    endloop
  endfacet
  facet normal 0.000000e+00 0.000000e+00 -1.000000e+00
    outer loop
      vertex -6.181439e+00 -3.698443e+01 3.885993e+01
      vertex -9.957531e+00 -3.698443e+01 3.885993e+01
      vertex -9.957536e+00 -3.084566e+01 3.885993e+01
    endloop
  endfacet
  facet normal -1.000000e+00 -1.230681e-06 0.000000e+00
    outer loop
      vertex -1.524807e+01 -2.961549e+01 5.673489e+01
      vertex -1.524807e+01 -3.084566e+01 5.673489e+01
      vertex -1.524807e+01 -3.084566e+01 6.056910e+01
    endloop
  endfacet
  facet normal -1.000000e+00 -1.230681e-06 0.000000e+00
    outer loop
      vertex -1.524807e+01 -3.084566e+01 6.056910e+01
      vertex -1.524807e+01 -2.961549e+01 6.056910e+01
      vertex -1.524807e+01 -2.961549e+01 5.673489e+01
    endloop
  endfacet
  facet normal 1.000000e+00 1.233112e-06 0.000000e+00
    outer loop
      vertex 1.524808e+01 -3.698442e+01 5.673324e+01
      vertex 1.524807e+01 -3.084565e+01 5.673324e+01
      vertex 1.524807e+01 -3.084565e+01 6.056746e+01
    endloop
  endfacet
  facet normal 1.000000e+00 1.233112e-06 0.000000e+00
    outer loop
      vertex 1.524807e+01 -3.084565e+01 6.056746e+01
      vertex 1.524808e+01 -3.698442e+01 6.056746e+01
      vertex 1.524808e+01 -3.698442e+01 5.673324e+01
    endloop
  endfacet
  facet normal -5.723265e-07 1.000000e+00 0.000000e+00
    outer loop
      vertex -9.957535e+00 -2.961548e+01 5.673489e+01
      vertex -1.524807e+01 -2.961549e+01 5.673489e+01
      vertex -1.524807e+01 -2.961549e+01 6.056910e+01
    endloop
  endfacet
  facet normal -5.723265e-07 1.000000e+00 0.000000e+00
    outer loop
      vertex -1.524807e+01 -2.961549e+01 6.056910e+01
      vertex -9.957535e+00 -2.961548e+01 6.056910e+01
      vertex -9.957535e+00 -2.961548e+01 5.673489e+01
    endloop
  endfacet
  facet normal 0.000000e+00 1.000000e+00 0.000000e+00
    outer loop
      vertex 1.524807e+01 -2.961547e+01 5.673324e+01
      vertex 9.957527e+00 -2.961547e+01 5.673324e+01
      vertex 9.957527e+00 -2.961547e+01 6.056746e+01
    endloop
  endfacet
  facet normal 0.000000e+00 1.000000e+00 0.000000e+00
    outer loop
      vertex 9.957527e+00 -2.961547e+01 6.056746e+01
      vertex 1.524807e+01 -2.961547e+01 6.056746e+01
      vertex 1.524807e+01 -2.961547e+01 5.673324e+01
    endloop
  endfacet
  facet normal 1.000000e+00 1.230681e-06 0.000000e+00
    outer loop
      vertex 1.524807e+01 -3.084565e+01 5.673324e+01
      vertex 1.524807e+01 -2.961547e+01 5.673324e+01
      vertex 1.524807e+01 -2.961547e+01 6.056746e+01
    endloop
  endfacet
  facet normal 1.000000e+00 1.230681e-06 0.000000e+00
    outer loop
      vertex 1.524807e+01 -2.961547e+01 6.056746e+01
      vertex 1.524807e+01 -3.084565e+01 6.056746e+01
      vertex 1.524807e+01 -3.084565e+01 5.673324e+01
    endloop
  endfacet
  facet normal 5.723265e-07 -1.000000e+00 0.000000e+00
    outer loop
      vertex -1.524807e+01 -3.698443e+01 5.673489e+01
      vertex -9.957531e+00 -3.698443e+01 5.673489e+01
      vertex -9.957531e+00 -3.698443e+01 6.056910e+01
    endloop
  endfacet
  facet normal 5.723265e-07 -1.000000e+00 0.000000e+00
    outer loop
      vertex -9.957531e+00 -3.698443e+01 6.056910e+01
      vertex -1.524807e+01 -3.698443e+01 6.056910e+01
      vertex -1.524807e+01 -3.698443e+01 5.673489e+01
    endloop
  endfacet
  facet normal -1.000000e+00 -9.230110e-07 0.000000e+00
    outer loop
      vertex 6.322122e+00 -2.961548e+01 5.673324e+01
      vertex 6.322123e+00 -3.084566e+01 5.673324e+01
      vertex 6.322123e+00 -3.084566e+01 6.056746e+01
    endloop
  endfacet
  facet normal -1.000000e+00 -9.230110e-07 0.000000e+00
    outer loop
      vertex 6.322123e+00 -3.084566e+01 6.056746e+01
      vertex 6.322122e+00 -2.961548e+01 6.056746e+01
      vertex 6.322122e+00 -2.961548e+01 5.673324e+01
    endloop
  endfacet
  facet normal 1.000000e+00 6.153392e-07 0.000000e+00
    outer loop
      vertex -6.181442e+00 -3.084566e+01 5.673489e+01
      vertex -6.181443e+00 -2.961548e+01 5.673489e+01
      vertex -6.181443e+00 -2.961548e+01 6.056910e+01
    endloop
  endfacet
  facet normal 1.000000e+00 6.153392e-07 0.000000e+00
    outer loop
      vertex -6.181443e+00 -2.961548e+01 6.056910e+01
      vertex -6.181442e+00 -3.084566e+01 6.056910e+01
      vertex -6.181442e+00 -3.084566e+01 5.673489e+01
    endloop
  endfacet
  facet normal -1.000000e+00 -1.233113e-06 0.000000e+00
    outer loop
      vertex 6.322123e+00 -3.084566e+01 5.673324e+01
      vertex 6.322131e+00 -3.698442e+01 5.673324e+01
      vertex 6.322131e+00 -3.698442e+01 6.056746e+01
    endloop
  endfacet
  facet normal -1.000000e+00 -1.233113e-06 0.000000e+00
    outer loop
      vertex 6.322131e+00 -3.698442e+01 6.056746e+01
      vertex 6.322123e+00 -3.084566e+01 6.056746e+01
      vertex 6.322123e+00 -3.084566e+01 5.673324e+01
    endloop
  endfacet
  facet normal 1.000000e+00 4.932450e-07 0.000000e+00
    outer loop
      vertex -6.181439e+00 -3.698443e+01 5.673489e+01
      vertex -6.181442e+00 -3.084566e+01 5.673489e+01
      vertex -6.181442e+00 -3.084566e+01 6.056910e+01
    endloop
  endfacet
  facet normal 1.000000e+00 4.932450e-07 0.000000e+00
    outer loop
      vertex -6.181442e+00 -3.084566e+01 6.056910e+01
      vertex -6.181439e+00 -3.698443e+01 6.056910e+01
      vertex -6.181439e+00 -3.698443e+01 5.673489e+01
    endloop
  endfacet
  facet normal -8.328965e-07 1.000000e+00 0.000000e+00
    outer loop
      vertex 9.957527e+00 -2.961547e+01 5.673324e+01
      vertex 6.322122e+00 -2.961548e+01 5.673324e+01
      vertex 6.322122e+00 -2.961548e+01 6.056746e+01
    endloop
  endfacet
  facet normal -8.328965e-07 1.000000e+00 0.000000e+00
    outer loop
      vertex 6.322122e+00 -2.961548e+01 6.056746e+01
      vertex 9.957527e+00 -2.961547e+01 6.056746e+01
      vertex 9.957527e+00 -2.961547e+01 5.673324e+01
    endloop
  endfacet
  facet normal 5.723267e-07 -1.000000e+00 0.000000e+00
    outer loop
      vertex 9.957537e+00 -3.698442e+01 5.673324e+01
      vertex 1.524808e+01 -3.698442e+01 5.673324e+01
      vertex 1.524808e+01 -3.698442e+01 6.056746e+01
    endloop
  endfacet
  facet normal 5.723267e-07 -1.000000e+00 0.000000e+00
    outer loop
      vertex 1.524808e+01 -3.698442e+01 6.056746e+01
      vertex 9.957537e+00 -3.698442e+01 6.056746e+01
      vertex 9.957537e+00 -3.698442e+01 5.673324e+01
    endloop
  endfacet
  facet normal -8.018650e-07 -1.000000e+00 0.000000e+00
    outer loop
      vertex -9.957531e+00 -3.698443e+01 5.673489e+01
      vertex -6.181439e+00 -3.698443e+01 5.673489e+01
      vertex -6.181439e+00 -3.698443e+01 6.056910e+01
    endloop
  endfacet
  facet normal -8.018650e-07 -1.000000e+00 0.000000e+00
    outer loop
      vertex -6.181439e+00 -3.698443e+01 6.056910e+01
      vertex -9.957531e+00 -3.698443e+01 6.056910e+01
      vertex -9.957531e+00 -3.698443e+01 5.673489e+01
    endloop
  endfacet
  facet normal 0.000000e+00 1.000000e+00 0.000000e+00
    outer loop
      vertex -6.181443e+00 -2.961548e+01 5.673489e+01
      vertex -9.957535e+00 -2.961548e+01 5.673489e+01
      vertex -9.957535e+00 -2.961548e+01 6.056910e+01
    endloop
  endfacet
  facet normal 0.000000e+00 1.000000e+00 0.000000e+00
    outer loop
      vertex -9.957535e+00 -2.961548e+01 6.056910e+01
      vertex -6.181443e+00 -2.961548e+01 6.056910e+01
      vertex -6.181443e+00 -2.961548e+01 5.673489e+01
    endloop
  endfacet
  facet normal -8.328963e-07 -1.000000e+00 0.000000e+00
    outer loop
      vertex 6.322131e+00 -3.698442e+01 5.673324e+01
      vertex 9.957537e+00 -3.698442e+01 5.673324e+01
      vertex 9.957537e+00 -3.698442e+01 6.056746e+01
    endloop
  endfacet
  facet normal -8.328963e-07 -1.000000e+00 0.000000e+00
    outer loop
      vertex 9.957537e+00 -3.698442e+01 6.056746e+01
      vertex 6.322131e+00 -3.698442e+01 6.056746e+01
      vertex 6.322131e+00 -3.698442e+01 5.673324e+01
    endloop
  endfacet
  facet normal -1.000000e+00 -2.466225e-07 0.000000e+00
    outer loop
      vertex -1.524807e+01 -3.084566e+01 5.673489e+01
      vertex -1.524807e+01 -3.698443e+01 5.673489e+01
      vertex -1.524807e+01 -3.698443e+01 6.056910e+01
    endloop
  endfacet
  facet normal -1.000000e+00 -2.466225e-07 0.000000e+00
    outer loop
      vertex -1.524807e+01 -3.698443e+01 6.056910e+01
      vertex -1.524807e+01 -3.084566e+01 6.056910e+01
      vertex -1.524807e+01 -3.084566e+01 5.673489e+01
    endloop
  endfacet
  facet normal 0.000000e+00 0.000000e+00 1.000000e+00
    outer loop
      vertex 1.524807e+01 -3.084565e+01 6.056746e+01
      vertex 9.957529e+00 -3.084566e+01 6.056746e+01
      vertex 9.957537e+00 -3.698442e+01 6.056746e+01
    endloop
  endfacet
  facet normal 0.000000e+00 0.000000e+00 1.000000e+00
    outer loop
      vertex 9.957537e+00 -3.698442e+01 6.056746e+01
      vertex 1.524808e+01 -3.698442e+01 6.056746e+01
      vertex 1.524807e+01 -3.084565e+01 6.056746e+01
    endloop
  endfacet
  facet normal 0.000000e+00 0.000000e+00 1.000000e+00
    outer loop
      vertex -9.957536e+00 -3.084566e+01 6.056910e+01
      vertex -1.524807e+01 -3.084566e+01 6.056910e+01
      vertex -1.524807e+01 -3.698443e+01 6.056910e+01
    endloop
  endfacet
  facet normal 0.000000e+00 0.000000e+00 1.000000e+00
    outer loop
      vertex -1.524807e+01 -3.698443e+01 6.056910e+01
      vertex -9.957531e+00 -3.698443e+01 6.056910e+01
      vertex -9.957536e+00 -3.084566e+01 6.056910e+01
    endloop
  endfacet
  facet normal 0.000000e+00 0.000000e+00 1.000000e+00
    outer loop
      vertex 9.957529e+00 -3.084566e+01 6.056746e+01
      vertex 1.524807e+01 -3.084565e+01 6.056746e+01
      vertex 1.524807e+01 -2.961547e+01 6.056746e+01
    endloop
  endfacet
  facet normal 0.000000e+00 0.000000e+00 1.000000e+00
    outer loop
      vertex 1.524807e+01 -2.961547e+01 6.056746e+01
      vertex 9.957527e+00 -2.961547e+01 6.056746e+01
      vertex 9.957529e+00 -3.084566e+01 6.056746e+01
    endloop
  endfacet
  facet normal 0.000000e+00 0.000000e+00 1.000000e+00
    outer loop
      vertex -1.524807e+01 -3.084566e+01 6.056910e+01
      vertex -9.957536e+00 -3.084566e+01 6.056910e+01
      vertex -9.957535e+00 -2.961548e+01 6.056910e+01
    endloop
  endfacet
  facet normal 0.000000e+00 0.000000e+00 1.000000e+00
    outer loop
      vertex -9.957535e+00 -2.961548e+01 6.056910e+01
      vertex -1.524807e+01 -2.961549e+01 6.056910e+01
      vertex -1.524807e+01 -3.084566e+01 6.056910e+01
    endloop
  endfacet
  facet normal 0.000000e+00 0.000000e+00 1.000000e+00
    outer loop
      vertex -9.957535e+00 -2.961548e+01 6.056910e+01
      vertex -9.957536e+00 -3.084566e+01 6.056910e+01
      vertex -6.181442e+00 -3.084566e+01 6.056910e+01
    endloop
  endfacet
  facet normal 0.000000e+00 0.000000e+00 1.000000e+00
    outer loop
      vertex -6.181442e+00 -3.084566e+01 6.056910e+01
      vertex -6.181443e+00 -2.961548e+01 6.056910e+01
      vertex -9.957535e+00 -2.961548e+01 6.056910e+01
    endloop
  endfacet
  facet normal 0.000000e+00 0.000000e+00 1.000000e+00
    outer loop
      vertex -9.957536e+00 -3.084566e+01 6.056910e+01
      vertex -9.957531e+00 -3.698443e+01 6.056910e+01
      vertex -6.181439e+00 -3.698443e+01 6.056910e+01
    endloop
  endfacet
  facet normal 0.000000e+00 0.000000e+00 1.000000e+00
    outer loop
      vertex -6.181439e+00 -3.698443e+01 6.056910e+01
      vertex -6.181442e+00 -3.084566e+01 6.056910e+01
      vertex -9.957536e+00 -3.084566e+01 6.056910e+01
    endloop
  endfacet
  facet normal 0.000000e+00 0.000000e+00 1.000000e+00
    outer loop
      vertex 9.957529e+00 -3.084566e+01 6.056746e+01
      vertex 9.957527e+00 -2.961547e+01 6.056746e+01
      vertex 6.322122e+00 -2.961548e+01 6.056746e+01
    endloop
  endfacet
  facet normal 0.000000e+00 0.000000e+00 1.000000e+00
    outer loop
      vertex 6.322122e+00 -2.961548e+01 6.056746e+01
      vertex 6.322123e+00 -3.084566e+01 6.056746e+01
      vertex 9.957529e+00 -3.084566e+01 6.056746e+01
    endloop
  endfacet
  facet normal 0.000000e+00 0.000000e+00 1.000000e+00
    outer loop
      vertex 9.957537e+00 -3.698442e+01 6.056746e+01
      vertex 9.957529e+00 -3.084566e+01 6.056746e+01
      vertex 6.322123e+00 -3.084566e+01 6.056746e+01
    endloop
  endfacet
  facet normal 0.000000e+00 0.000000e+00 1.000000e+00
    outer loop
      vertex 6.322123e+00 -3.084566e+01 6.056746e+01
      vertex 6.322131e+00 -3.698442e+01 6.056746e+01
      vertex 9.957537e+00 -3.698442e+01 6.056746e+01
    endloop
  endfacet
  facet normal 0.000000e+00 0.000000e+00 -1.000000e+00
    outer loop
      vertex 9.957527e+00 -2.961547e+01 5.673324e+01
      vertex 6.322123e+00 -3.084566e+01 5.673324e+01
      vertex 6.322122e+00 -2.961548e+01 5.673324e+01
    endloop
  endfacet
  facet normal 0.000000e+00 0.000000e+00 -1.000000e+00
    outer loop
      vertex 1.524807e+01 -3.084565e+01 5.673324e+01
      vertex 6.322123e+00 -3.084566e+01 5.673324e+01
      vertex 9.957527e+00 -2.961547e+01 5.673324e+01
    endloop
  endfacet
  facet normal 0.000000e+00 0.000000e+00 -1.000000e+00
    outer loop
      vertex 1.524807e+01 -3.084565e+01 5.673324e+01
      vertex 9.957527e+00 -2.961547e+01 5.673324e+01
      vertex 1.524807e+01 -2.961547e+01 5.673324e+01
    endloop
  endfacet
  facet normal 8.328964e-07 1.000000e+00 0.000000e+00
    outer loop
      vertex 9.957529e+00 -3.084566e+01 3.885828e+01
      vertex 6.322123e+00 -3.084566e+01 3.885828e+01
      vertex 6.322123e+00 -3.084566e+01 5.673324e+01
    endloop
  endfacet
  facet normal -3.392264e-07 1.000000e+00 -2.383861e-07
    outer loop
      vertex 9.957529e+00 -3.084566e+01 3.885828e+01
      vertex 6.322123e+00 -3.084566e+01 5.673324e+01
      vertex 1.524807e+01 -3.084565e+01 5.673324e+01
    endloop
  endfacet
  facet normal -1.144653e-06 1.000000e+00 0.000000e+00
    outer loop
      vertex 1.524807e+01 -3.084565e+01 3.885828e+01
      vertex 9.957529e+00 -3.084566e+01 3.885828e+01
      vertex 1.524807e+01 -3.084565e+01 5.673324e+01
    endloop
  endfacet
  facet normal 0.000000e+00 0.000000e+00 -1.000000e+00
    outer loop
      vertex -9.957535e+00 -2.961548e+01 5.673489e+01
      vertex -6.181443e+00 -2.961548e+01 5.673489e+01
      vertex -6.181442e+00 -3.084566e+01 5.673489e+01
    endloop
  endfacet
  facet normal 0.000000e+00 0.000000e+00 -1.000000e+00
    outer loop
      vertex -1.524807e+01 -3.084566e+01 5.673489e+01
      vertex -1.524807e+01 -2.961549e+01 5.673489e+01
      vertex -9.957535e+00 -2.961548e+01 5.673489e+01
    endloop
  endfacet
  facet normal 0.000000e+00 0.000000e+00 -1.000000e+00
    outer loop
      vertex -1.524807e+01 -3.084566e+01 5.673489e+01
      vertex -9.957535e+00 -2.961548e+01 5.673489e+01
      vertex -6.181442e+00 -3.084566e+01 5.673489e+01
    endloop
  endfacet
  facet normal 8.018648e-07 1.000000e+00 0.000000e+00
    outer loop
      vertex -9.957536e+00 -3.084566e+01 3.885993e+01
      vertex -6.181442e+00 -3.084566e+01 5.673489e+01
      vertex -6.181442e+00 -3.084566e+01 3.885993e+01
    endloop
  endfacet
  facet normal -5.723268e-07 1.000000e+00 0.000000e+00
    outer loop
      vertex -1.524807e+01 -3.084566e+01 3.885993e+01
      vertex -1.524807e+01 -3.084566e+01 5.673489e+01
      vertex -9.957536e+00 -3.084566e+01 3.885993e+01
    endloop
  endfacet
  facet normal 0.000000e+00 1.000000e+00 1.693942e-07
    outer loop
      vertex -9.957536e+00 -3.084566e+01 3.885993e+01
      vertex -1.524807e+01 -3.084566e+01 5.673489e+01
      vertex -6.181442e+00 -3.084566e+01 5.673489e+01
    endloop
  endfacet
  facet normal -3.507066e-07 -3.370195e-07 1.000000e+00
    outer loop
      vertex -8.633520e+00 3.500234e+01 3.159164e+01
      vertex 8.634164e+00 3.500216e+01 3.159165e+01
      vertex 6.665535e+00 3.705074e+01 3.159165e+01
    endloop
  endfacet
  facet normal -3.958309e-07 3.656932e-12 1.000000e+00
    outer loop
      vertex -8.633520e+00 3.500234e+01 3.159164e+01
      vertex 6.665535e+00 3.705074e+01 3.159165e+01
      vertex -8.633501e+00 3.705075e+01 3.159164e+01
    endloop
  endfacet
endsolid Default
