solid Default
  facet normal -5.045489e-12 7.178118e-07 1.000000e+00
    outer loop
      vertex 7.198022e+00 -2.317796e+01 1.933344e+01
      vertex 8.290494e+00 -2.106883e+01 1.933344e+01
      vertex 6.336471e+00 -2.317797e+01 1.933344e+01
    endloop
  endfacet
  facet normal -1.988126e-12 7.178089e-07 1.000000e+00
    outer loop
      vertex 8.290494e+00 -2.106883e+01 1.933344e+01
      vertex 4.150025e+00 -2.317798e+01 1.933344e+01
      vertex 6.336471e+00 -2.317797e+01 1.933344e+01
    endloop
  endfacet
  facet normal 7.028988e-06 -1.000000e+00 -2.042061e-11
    outer loop
      vertex 7.197998e+00 -2.317796e+01 1.099552e+01
      vertex 7.198022e+00 -2.317796e+01 1.933344e+01
      vertex 6.336471e+00 -2.317797e+01 1.933344e+01
    endloop
  endfacet
  facet normal 6.130227e-07 3.753682e-23 1.000000e+00
    outer loop
      vertex 8.290494e+00 -2.106883e+01 1.933344e+01
      vertex -4.057807e+00 -2.317800e+01 1.933344e+01
      vertex -4.057807e+00 -2.622600e+01 1.933344e+01
    endloop
  endfacet
  facet normal 1.475635e-06 -4.277840e-06 1.000000e+00
    outer loop
      vertex -8.290470e+00 2.287105e+01 3.156497e+01
      vertex 4.149880e+00 2.362326e+01 3.156496e+01
      vertex -4.057952e+00 2.362324e+01 3.156497e+01
    endloop
  endfacet
  facet normal -6.345078e-07 1.062457e-08 -1.000000e+00
    outer loop
      vertex -1.477587e+00 9.777247e+00 7.569790e-06
      vertex -5.934715e-04 8.924510e+00 6.623566e-06
      vertex 5.164014e+00 -2.106883e+01 3.027916e-06
    endloop
  endfacet
  facet normal -6.160306e-07 -3.772099e-23 -1.000000e+00
    outer loop
      vertex -5.163990e+00 2.136267e+01 9.840727e-06
      vertex -1.477587e+00 1.148273e+01 7.569790e-06
      vertex -1.477587e+00 9.777247e+00 7.569790e-06
    endloop
  endfacet
  facet normal 9.934134e-07 -4.445353e-07 1.000000e+00
    outer loop
      vertex 8.290349e+00 2.911270e+01 3.156495e+01
      vertex 4.149856e+00 2.667126e+01 3.156496e+01
      vertex 7.197853e+00 2.667127e+01 3.156495e+01
    endloop
  endfacet
  facet normal 7.301842e-07 4.471089e-23 1.000000e+00
    outer loop
      vertex 4.150025e+00 -2.622597e+01 1.933344e+01
      vertex 4.150025e+00 -2.317798e+01 1.933344e+01
      vertex -8.290325e+00 -2.911270e+01 1.933345e+01
    endloop
  endfacet
  facet normal 7.534716e-07 -1.254575e-07 1.000000e+00
    outer loop
      vertex 8.290373e+00 2.136272e+01 3.997294e+00
      vertex -6.176949e-04 1.380499e+01 3.997299e+00
      vertex 2.749021e+00 1.221750e+01 3.997297e+00
    endloop
  endfacet
  facet normal 6.615253e-07 -4.629450e-08 1.000000e+00
    outer loop
      vertex -5.934715e-04 7.454989e+00 3.997299e+00
      vertex -2.750232e+00 9.042483e+00 3.997300e+00
      vertex -8.290349e+00 -2.106888e+01 3.997303e+00
    endloop
  endfacet
  facet normal -6.456667e-07 8.703114e-09 -1.000000e+00
    outer loop
      vertex -5.934715e-04 8.924510e+00 6.623566e-06
      vertex 1.476400e+00 9.777253e+00 5.677342e-06
      vertex 5.164014e+00 -2.106883e+01 3.027916e-06
    endloop
  endfacet
  facet normal 9.934179e-07 -1.564428e-06 1.000000e+00
    outer loop
      vertex -4.057952e+00 2.362324e+01 3.156497e+01
      vertex -7.105949e+00 2.362322e+01 3.156497e+01
      vertex -8.290470e+00 2.287105e+01 3.156497e+01
    endloop
  endfacet
  facet normal 4.967052e-07 3.206444e-07 1.000000e+00
    outer loop
      vertex -4.057807e+00 -2.622600e+01 1.933344e+01
      vertex -7.105804e+00 -2.622601e+01 1.933345e+01
      vertex -8.290325e+00 -2.911270e+01 1.933345e+01
    endloop
  endfacet
  facet normal 5.464149e-07 4.168815e-12 1.000000e+00
    outer loop
      vertex 2.749021e+00 1.221750e+01 3.997297e+00
      vertex 2.749045e+00 9.042502e+00 3.997297e+00
      vertex 8.290373e+00 2.136272e+01 3.997294e+00
    endloop
  endfacet
  facet normal 7.257596e-07 -6.496261e-08 1.000000e+00
    outer loop
      vertex 2.749045e+00 9.042502e+00 3.997297e+00
      vertex -5.934715e-04 7.454989e+00 3.997299e+00
      vertex -8.290349e+00 -2.106888e+01 3.997303e+00
    endloop
  endfacet
  facet normal -6.180508e-07 3.912924e-08 -1.000000e+00
    outer loop
      vertex 5.163868e+00 2.136271e+01 3.784895e-06
      vertex 1.476400e+00 1.148274e+01 5.677342e-06
      vertex -5.934715e-04 1.233547e+01 6.623566e-06
    endloop
  endfacet
  facet normal 1.475623e-06 1.172721e-11 1.000000e+00
    outer loop
      vertex 4.149856e+00 2.667126e+01 3.156496e+01
      vertex -4.057952e+00 2.362324e+01 3.156497e+01
      vertex 4.149880e+00 2.362326e+01 3.156496e+01
    endloop
  endfacet
  facet normal 7.876803e-01 2.248356e-06 -6.160842e-01
    outer loop
      vertex 8.290373e+00 2.136272e+01 3.997294e+00
      vertex 8.290494e+00 -2.106882e+01 3.997294e+00
      vertex 5.164014e+00 -2.106883e+01 3.027916e-06
    endloop
  endfacet
  facet normal 7.876779e-01 2.709010e-06 -6.160872e-01
    outer loop
      vertex 5.164014e+00 -2.106883e+01 3.027916e-06
      vertex 5.163868e+00 2.136271e+01 3.784895e-06
      vertex 8.290373e+00 2.136272e+01 3.997294e+00
    endloop
  endfacet
  facet normal -7.876784e-01 -2.237359e-06 -6.160867e-01
    outer loop
      vertex -8.290494e+00 2.136266e+01 3.997305e+00
      vertex -5.163990e+00 2.136267e+01 9.840727e-06
      vertex -5.163868e+00 -2.106887e+01 9.083748e-06
    endloop
  endfacet
  facet normal -7.876806e-01 -2.665055e-06 -6.160839e-01
    outer loop
      vertex -5.163868e+00 -2.106887e+01 9.083748e-06
      vertex -8.290349e+00 -2.106888e+01 3.997303e+00
      vertex -8.290494e+00 2.136266e+01 3.997305e+00
    endloop
  endfacet
  facet normal 5.369832e-07 4.246322e-09 1.000000e+00
    outer loop
      vertex 8.290373e+00 2.136272e+01 3.997294e+00
      vertex 2.749045e+00 9.042502e+00 3.997297e+00
      vertex -8.290349e+00 -2.106888e+01 3.997303e+00
    endloop
  endfacet
  facet normal 5.478460e-07 1.563772e-12 1.000000e+00
    outer loop
      vertex -8.290349e+00 -2.106888e+01 3.997303e+00
      vertex 8.290494e+00 -2.106882e+01 3.997294e+00
      vertex 8.290373e+00 2.136272e+01 3.997294e+00
    endloop
  endfacet
  facet normal -5.863577e-07 1.783833e-08 -1.000000e+00
    outer loop
      vertex 5.164014e+00 -2.106883e+01 3.027916e-06
      vertex -5.163868e+00 -2.106887e+01 9.083748e-06
      vertex -5.163990e+00 2.136267e+01 9.840727e-06
    endloop
  endfacet
  facet normal -4.740871e-07 4.516545e-08 -1.000000e+00
    outer loop
      vertex -5.163990e+00 2.136267e+01 9.840727e-06
      vertex -1.477587e+00 9.777247e+00 7.569790e-06
      vertex 5.164014e+00 -2.106883e+01 3.027916e-06
    endloop
  endfacet
  facet normal -5.863590e-07 -3.590413e-23 -1.000000e+00
    outer loop
      vertex 5.163868e+00 2.136271e+01 3.784895e-06
      vertex -5.163990e+00 2.136267e+01 9.840727e-06
      vertex -5.163990e+00 2.287106e+01 9.840727e-06
    endloop
  endfacet
  facet normal -5.863590e-07 -3.590413e-23 -1.000000e+00
    outer loop
      vertex -5.163990e+00 2.287106e+01 9.840727e-06
      vertex 5.163868e+00 2.287109e+01 3.784895e-06
      vertex 5.163868e+00 2.136271e+01 3.784895e-06
    endloop
  endfacet
  facet normal -7.876784e-01 -4.823139e-17 -6.160867e-01
    outer loop
      vertex -5.163990e+00 2.136267e+01 9.840727e-06
      vertex -8.290494e+00 2.136266e+01 3.997305e+00
      vertex -8.290494e+00 2.287105e+01 3.997305e+00
    endloop
  endfacet
  facet normal -7.876784e-01 -4.823139e-17 -6.160867e-01
    outer loop
      vertex -8.290494e+00 2.287105e+01 3.997305e+00
      vertex -5.163990e+00 2.287106e+01 9.840727e-06
      vertex -5.163990e+00 2.136267e+01 9.840727e-06
    endloop
  endfacet
  facet normal 7.876779e-01 4.823137e-17 -6.160872e-01
    outer loop
      vertex 8.290373e+00 2.136272e+01 3.997294e+00
      vertex 5.163868e+00 2.136271e+01 3.784895e-06
      vertex 5.163868e+00 2.287109e+01 3.784895e-06
    endloop
  endfacet
  facet normal 7.876803e-01 1.264946e-05 -6.160842e-01
    outer loop
      vertex 5.163868e+00 2.287109e+01 3.784895e-06
      vertex 8.290349e+00 2.287110e+01 3.997294e+00
      vertex 8.290373e+00 2.136272e+01 3.997294e+00
    endloop
  endfacet
  facet normal 7.876803e-01 3.056950e-06 -6.160842e-01
    outer loop
      vertex 8.290349e+00 2.287110e+01 3.997294e+00
      vertex 5.163868e+00 2.287109e+01 3.784895e-06
      vertex 5.163844e+00 2.911268e+01 3.784895e-06
    endloop
  endfacet
  facet normal 7.876779e-01 4.823137e-17 -6.160872e-01
    outer loop
      vertex 5.163844e+00 2.911268e+01 3.784895e-06
      vertex 8.290349e+00 2.911269e+01 3.997294e+00
      vertex 8.290349e+00 2.287110e+01 3.997294e+00
    endloop
  endfacet
  facet normal -7.876784e-01 -3.056943e-06 -6.160867e-01
    outer loop
      vertex -5.163990e+00 2.287106e+01 9.840727e-06
      vertex -8.290494e+00 2.287105e+01 3.997305e+00
      vertex -8.290519e+00 2.911264e+01 3.997305e+00
    endloop
  endfacet
  facet normal -7.876784e-01 -3.056941e-06 -6.160867e-01
    outer loop
      vertex -8.290519e+00 2.911264e+01 3.997305e+00
      vertex -5.164014e+00 2.911265e+01 9.840727e-06
      vertex -5.163990e+00 2.287106e+01 9.840727e-06
    endloop
  endfacet
  facet normal -5.863590e-07 -2.275630e-12 -1.000000e+00
    outer loop
      vertex 5.163868e+00 2.287109e+01 3.784895e-06
      vertex -5.163990e+00 2.287106e+01 9.840727e-06
      vertex -5.164014e+00 2.911265e+01 9.840727e-06
    endloop
  endfacet
  facet normal -5.863590e-07 -2.275631e-12 -1.000000e+00
    outer loop
      vertex -5.164014e+00 2.911265e+01 9.840727e-06
      vertex 5.163844e+00 2.911268e+01 3.784895e-06
      vertex 5.163868e+00 2.287109e+01 3.784895e-06
    endloop
  endfacet
  facet normal -3.469686e-06 1.000000e+00 -3.161325e-07
    outer loop
      vertex -8.290519e+00 2.911264e+01 3.997305e+00
      vertex 8.290349e+00 2.911269e+01 3.997294e+00
      vertex 5.163844e+00 2.911268e+01 3.784895e-06
    endloop
  endfacet
  facet normal -2.931794e-06 1.000000e+00 1.494338e-06
    outer loop
      vertex 5.163844e+00 2.911268e+01 3.784895e-06
      vertex -5.164014e+00 2.911265e+01 9.840727e-06
      vertex -8.290519e+00 2.911264e+01 3.997305e+00
    endloop
  endfacet
  facet normal -1.000000e+00 -3.880953e-06 3.831011e-13
    outer loop
      vertex -8.290519e+00 2.911264e+01 3.997305e+00
      vertex -8.290494e+00 2.287105e+01 3.997305e+00
      vertex -8.290494e+00 2.287105e+01 1.933425e+01
    endloop
  endfacet
  facet normal -1.000000e+00 -6.123234e-17 1.579410e-06
    outer loop
      vertex -8.290494e+00 2.287105e+01 1.933425e+01
      vertex -8.290494e+00 2.911264e+01 1.933425e+01
      vertex -8.290519e+00 2.911264e+01 3.997305e+00
    endloop
  endfacet
  facet normal 1.000000e+00 6.123234e-17 0.000000e+00
    outer loop
      vertex 8.290349e+00 2.287110e+01 3.997294e+00
      vertex 8.290349e+00 2.911269e+01 3.997294e+00
      vertex 8.290349e+00 2.911270e+01 1.933423e+01
    endloop
  endfacet
  facet normal 1.000000e+00 3.880951e-06 -1.579411e-06
    outer loop
      vertex 8.290349e+00 2.911270e+01 1.933423e+01
      vertex 8.290373e+00 2.287110e+01 1.933423e+01
      vertex 8.290349e+00 2.287110e+01 3.997294e+00
    endloop
  endfacet
  facet normal -1.000000e+00 -6.123234e-17 1.579410e-06
    outer loop
      vertex -8.290494e+00 2.287105e+01 3.997305e+00
      vertex -8.290494e+00 2.136266e+01 3.997305e+00
      vertex -8.290470e+00 2.136266e+01 1.933425e+01
    endloop
  endfacet
  facet normal -1.000000e+00 -1.605911e-05 1.585245e-12
    outer loop
      vertex -8.290470e+00 2.136266e+01 1.933425e+01
      vertex -8.290494e+00 2.287105e+01 1.933425e+01
      vertex -8.290494e+00 2.287105e+01 3.997305e+00
    endloop
  endfacet
  facet normal 1.000000e+00 1.605913e-05 -1.579412e-06
    outer loop
      vertex 8.290373e+00 2.136272e+01 3.997294e+00
      vertex 8.290349e+00 2.287110e+01 3.997294e+00
      vertex 8.290373e+00 2.287110e+01 1.933423e+01
    endloop
  endfacet
  facet normal 1.000000e+00 6.123234e-17 0.000000e+00
    outer loop
      vertex 8.290373e+00 2.287110e+01 1.933423e+01
      vertex 8.290373e+00 2.136272e+01 1.933423e+01
      vertex 8.290373e+00 2.136272e+01 3.997294e+00
    endloop
  endfacet
  facet normal 1.004384e-06 6.150080e-23 1.000000e+00
    outer loop
      vertex -8.290470e+00 2.136266e+01 1.933425e+01
      vertex 8.290373e+00 2.136272e+01 1.933423e+01
      vertex 8.290373e+00 2.287110e+01 1.933423e+01
    endloop
  endfacet
  facet normal 1.004383e-06 1.612950e-11 1.000000e+00
    outer loop
      vertex 8.290373e+00 2.287110e+01 1.933423e+01
      vertex -8.290494e+00 2.287105e+01 1.933425e+01
      vertex -8.290470e+00 2.136266e+01 1.933425e+01
    endloop
  endfacet
  facet normal 3.287071e-06 -1.000000e+00 2.475664e-07
    outer loop
      vertex -8.290494e+00 2.287105e+01 1.933425e+01
      vertex 8.290373e+00 2.287110e+01 1.933423e+01
      vertex 8.290373e+00 2.287110e+01 3.156495e+01
    endloop
  endfacet
  facet normal 3.287076e-06 -1.000000e+00 2.475599e-07
    outer loop
      vertex 8.290373e+00 2.287110e+01 3.156495e+01
      vertex -8.290470e+00 2.287105e+01 3.156497e+01
      vertex -8.290494e+00 2.287105e+01 1.933425e+01
    endloop
  endfacet
  facet normal 1.000000e+00 3.880951e-06 0.000000e+00
    outer loop
      vertex 8.290373e+00 2.287110e+01 1.933423e+01
      vertex 8.290349e+00 2.911270e+01 1.933423e+01
      vertex 8.290349e+00 2.911270e+01 3.156495e+01
    endloop
  endfacet
  facet normal 1.000000e+00 3.880953e-06 -9.607936e-13
    outer loop
      vertex 8.290349e+00 2.911270e+01 3.156495e+01
      vertex 8.290373e+00 2.287110e+01 3.156495e+01
      vertex 8.290373e+00 2.287110e+01 1.933423e+01
    endloop
  endfacet
  facet normal -1.000000e+00 -6.123234e-17 1.980531e-06
    outer loop
      vertex -8.290494e+00 2.911264e+01 1.933425e+01
      vertex -8.290494e+00 2.287105e+01 1.933425e+01
      vertex -8.290470e+00 2.287105e+01 3.156497e+01
    endloop
  endfacet
  facet normal -1.000000e+00 -3.880953e-06 9.607935e-13
    outer loop
      vertex -8.290470e+00 2.287105e+01 3.156497e+01
      vertex -8.290494e+00 2.911264e+01 3.156497e+01
      vertex -8.290494e+00 2.911264e+01 1.933425e+01
    endloop
  endfacet
  facet normal -3.469691e-06 1.000000e+00 -2.475664e-07
    outer loop
      vertex 8.290349e+00 2.911270e+01 1.933423e+01
      vertex -8.290494e+00 2.911264e+01 1.933425e+01
      vertex -8.290494e+00 2.911264e+01 3.156497e+01
    endloop
  endfacet
  facet normal -3.287076e-06 1.000000e+00 0.000000e+00
    outer loop
      vertex -8.290494e+00 2.911264e+01 3.156497e+01
      vertex 8.290349e+00 2.911270e+01 3.156495e+01
      vertex 8.290349e+00 2.911270e+01 1.933423e+01
    endloop
  endfacet
  facet normal -5.863589e-07 3.764260e-07 -1.000000e+00
    outer loop
      vertex -5.163868e+00 -2.106887e+01 9.083748e-06
      vertex 5.164014e+00 -2.106883e+01 3.027916e-06
      vertex 5.164038e+00 -2.911265e+01 0.000000e+00
    endloop
  endfacet
  facet normal -5.863600e-07 3.764245e-07 -1.000000e+00
    outer loop
      vertex 5.164038e+00 -2.911265e+01 0.000000e+00
      vertex -5.163820e+00 -2.911268e+01 6.055832e-06
      vertex -5.163868e+00 -2.106887e+01 9.083748e-06
    endloop
  endfacet
  facet normal -7.876806e-01 -4.512170e-06 -6.160839e-01
    outer loop
      vertex -8.290349e+00 -2.106888e+01 3.997303e+00
      vertex -5.163868e+00 -2.106887e+01 9.083748e-06
      vertex -5.163820e+00 -2.911268e+01 6.055832e-06
    endloop
  endfacet
  facet normal -7.876782e-01 -2.140121e-06 -6.160868e-01
    outer loop
      vertex -5.163820e+00 -2.911268e+01 6.055832e-06
      vertex -8.290325e+00 -2.911269e+01 3.997300e+00
      vertex -8.290349e+00 -2.106888e+01 3.997303e+00
    endloop
  endfacet
  facet normal 7.876803e-01 2.603949e-06 -6.160842e-01
    outer loop
      vertex 5.164014e+00 -2.106883e+01 3.027916e-06
      vertex 8.290494e+00 -2.106882e+01 3.997294e+00
      vertex 8.290519e+00 -2.911264e+01 3.997291e+00
    endloop
  endfacet
  facet normal 7.876803e-01 2.603949e-06 -6.160842e-01
    outer loop
      vertex 8.290519e+00 -2.911264e+01 3.997291e+00
      vertex 5.164038e+00 -2.911265e+01 0.000000e+00
      vertex 5.164014e+00 -2.106883e+01 3.027916e-06
    endloop
  endfacet
  facet normal 3.287075e-06 -1.000000e+00 -4.589621e-07
    outer loop
      vertex 8.290519e+00 -2.911264e+01 3.997291e+00
      vertex -8.290325e+00 -2.911269e+01 3.997300e+00
      vertex -5.163820e+00 -2.911268e+01 6.055832e-06
    endloop
  endfacet
  facet normal 2.931795e-06 -1.000000e+00 7.368649e-07
    outer loop
      vertex -5.163820e+00 -2.911268e+01 6.055832e-06
      vertex 5.164038e+00 -2.911265e+01 0.000000e+00
      vertex 8.290519e+00 -2.911264e+01 3.997291e+00
    endloop
  endfacet
  facet normal 9.999934e-01 3.010033e-06 3.638099e-03
    outer loop
      vertex 8.290519e+00 -2.911264e+01 3.997291e+00
      vertex 8.290494e+00 -2.106882e+01 3.997294e+00
      vertex 8.273344e+00 -2.106882e+01 8.711295e+00
    endloop
  endfacet
  facet normal 9.999934e-01 3.011060e-06 3.638097e-03
    outer loop
      vertex 8.273344e+00 -2.106882e+01 8.711295e+00
      vertex 8.273369e+00 -2.911264e+01 8.711294e+00
      vertex 8.290519e+00 -2.911264e+01 3.997291e+00
    endloop
  endfacet
  facet normal 3.287076e-06 -1.000000e+00 1.195878e-08
    outer loop
      vertex -8.290325e+00 -2.911269e+01 3.997300e+00
      vertex 8.290519e+00 -2.911264e+01 3.997291e+00
      vertex 8.273369e+00 -2.911264e+01 8.711294e+00
    endloop
  endfacet
  facet normal 3.293890e-06 -1.000000e+00 -1.198357e-08
    outer loop
      vertex 8.273369e+00 -2.911264e+01 8.711294e+00
      vertex -8.273175e+00 -2.911269e+01 8.711303e+00
      vertex -8.290325e+00 -2.911269e+01 3.997300e+00
    endloop
  endfacet
  facet normal -9.999934e-01 -3.012774e-06 3.638097e-03
    outer loop
      vertex -8.290349e+00 -2.106888e+01 3.997303e+00
      vertex -8.290325e+00 -2.911269e+01 3.997300e+00
      vertex -8.273175e+00 -2.911269e+01 8.711303e+00
    endloop
  endfacet
  facet normal -9.999934e-01 -3.012429e-06 3.638098e-03
    outer loop
      vertex -8.273175e+00 -2.911269e+01 8.711303e+00
      vertex -8.273199e+00 -2.106888e+01 8.711305e+00
      vertex -8.290349e+00 -2.106888e+01 3.997303e+00
    endloop
  endfacet
  facet normal -3.652307e-06 1.000000e+00 -1.271360e-06
    outer loop
      vertex 8.290494e+00 -2.106882e+01 3.997294e+00
      vertex -8.290349e+00 -2.106888e+01 3.997303e+00
      vertex -8.273199e+00 -2.106888e+01 8.711305e+00
    endloop
  endfacet
  facet normal -3.293890e-06 1.000000e+00 -1.198358e-08
    outer loop
      vertex -8.273199e+00 -2.106888e+01 8.711305e+00
      vertex 8.273344e+00 -2.106882e+01 8.711295e+00
      vertex 8.290494e+00 -2.106882e+01 3.997294e+00
    endloop
  endfacet
  facet normal -3.293889e-06 1.000000e+00 1.662180e-06
    outer loop
      vertex 8.273344e+00 -2.106882e+01 8.711295e+00
      vertex -8.273199e+00 -2.106888e+01 8.711305e+00
      vertex -8.273199e+00 -2.106888e+01 1.235461e+01
    endloop
  endfacet
  facet normal -3.293889e-06 1.000000e+00 1.662180e-06
    outer loop
      vertex -8.273199e+00 -2.106888e+01 1.235461e+01
      vertex 8.273344e+00 -2.106883e+01 1.235460e+01
      vertex 8.273344e+00 -2.106882e+01 8.711295e+00
    endloop
  endfacet
  facet normal -1.000000e+00 -3.011422e-06 0.000000e+00
    outer loop
      vertex -8.273199e+00 -2.106888e+01 8.711305e+00
      vertex -8.273175e+00 -2.911269e+01 8.711303e+00
      vertex -8.273175e+00 -2.911269e+01 1.235461e+01
    endloop
  endfacet
  facet normal -1.000000e+00 -3.011424e-06 -5.005530e-12
    outer loop
      vertex -8.273175e+00 -2.911269e+01 1.235461e+01
      vertex -8.273199e+00 -2.106888e+01 1.235461e+01
      vertex -8.273199e+00 -2.106888e+01 8.711305e+00
    endloop
  endfacet
  facet normal 3.293890e-06 -1.000000e+00 0.000000e+00
    outer loop
      vertex -8.273175e+00 -2.911269e+01 8.711303e+00
      vertex 8.273369e+00 -2.911264e+01 8.711294e+00
      vertex 8.273369e+00 -2.911264e+01 1.235460e+01
    endloop
  endfacet
  facet normal 3.293890e-06 -1.000000e+00 0.000000e+00
    outer loop
      vertex 8.273369e+00 -2.911264e+01 1.235460e+01
      vertex -8.273175e+00 -2.911269e+01 1.235461e+01
      vertex -8.273175e+00 -2.911269e+01 8.711303e+00
    endloop
  endfacet
  facet normal 1.000000e+00 3.011422e-06 5.005526e-12
    outer loop
      vertex 8.273369e+00 -2.911264e+01 8.711294e+00
      vertex 8.273344e+00 -2.106882e+01 8.711295e+00
      vertex 8.273344e+00 -2.106883e+01 1.235460e+01
    endloop
  endfacet
  facet normal 1.000000e+00 3.011424e-06 0.000000e+00
    outer loop
      vertex 8.273344e+00 -2.106883e+01 1.235460e+01
      vertex 8.273369e+00 -2.911264e+01 1.235460e+01
      vertex 8.273369e+00 -2.911264e+01 8.711294e+00
    endloop
  endfacet
  facet normal 9.999934e-01 3.011405e-06 -3.638096e-03
    outer loop
      vertex 8.273369e+00 -2.911264e+01 1.235460e+01
      vertex 8.273344e+00 -2.106883e+01 1.235460e+01
      vertex 8.290494e+00 -2.106883e+01 1.706861e+01
    endloop
  endfacet
  facet normal 9.999934e-01 3.012090e-06 -3.638098e-03
    outer loop
      vertex 8.290494e+00 -2.106883e+01 1.706861e+01
      vertex 8.290519e+00 -2.911264e+01 1.706860e+01
      vertex 8.273369e+00 -2.911264e+01 1.235460e+01
    endloop
  endfacet
  facet normal 3.293890e-06 -1.000000e+00 -1.198357e-08
    outer loop
      vertex -8.273175e+00 -2.911269e+01 1.235461e+01
      vertex 8.273369e+00 -2.911264e+01 1.235460e+01
      vertex 8.290519e+00 -2.911264e+01 1.706860e+01
    endloop
  endfacet
  facet normal 3.652305e-06 -1.000000e+00 -1.271359e-06
    outer loop
      vertex 8.290519e+00 -2.911264e+01 1.706860e+01
      vertex -8.290325e+00 -2.911270e+01 1.706861e+01
      vertex -8.273175e+00 -2.911269e+01 1.235461e+01
    endloop
  endfacet
  facet normal -9.999934e-01 -3.010377e-06 -3.638096e-03
    outer loop
      vertex -8.273199e+00 -2.106888e+01 1.235461e+01
      vertex -8.273175e+00 -2.911269e+01 1.235461e+01
      vertex -8.290325e+00 -2.911270e+01 1.706861e+01
    endloop
  endfacet
  facet normal -9.999934e-01 -3.010033e-06 -3.638095e-03
    outer loop
      vertex -8.290325e+00 -2.911270e+01 1.706861e+01
      vertex -8.290349e+00 -2.106888e+01 1.706862e+01
      vertex -8.273199e+00 -2.106888e+01 1.235461e+01
    endloop
  endfacet
  facet normal -3.293890e-06 1.000000e+00 -1.198356e-08
    outer loop
      vertex 8.273344e+00 -2.106883e+01 1.235460e+01
      vertex -8.273199e+00 -2.106888e+01 1.235461e+01
      vertex -8.290349e+00 -2.106888e+01 1.706862e+01
    endloop
  endfacet
  facet normal -3.287076e-06 1.000000e+00 1.195878e-08
    outer loop
      vertex -8.290349e+00 -2.106888e+01 1.706862e+01
      vertex 8.290494e+00 -2.106883e+01 1.706861e+01
      vertex 8.273344e+00 -2.106883e+01 1.235460e+01
    endloop
  endfacet
  facet normal -3.287074e-06 1.000000e+00 2.673856e-06
    outer loop
      vertex 8.290494e+00 -2.106883e+01 1.706861e+01
      vertex -8.290349e+00 -2.106888e+01 1.706862e+01
      vertex -8.290349e+00 -2.106889e+01 1.933345e+01
    endloop
  endfacet
  facet normal -3.652306e-06 1.000000e+00 0.000000e+00
    outer loop
      vertex -8.290349e+00 -2.106889e+01 1.933345e+01
      vertex 8.290494e+00 -2.106883e+01 1.933344e+01
      vertex 8.290494e+00 -2.106883e+01 1.706861e+01
    endloop
  endfacet
  facet normal -1.000000e+00 -3.011422e-06 0.000000e+00
    outer loop
      vertex -8.290349e+00 -2.106888e+01 1.706862e+01
      vertex -8.290325e+00 -2.911270e+01 1.706861e+01
      vertex -8.290325e+00 -2.911270e+01 1.933345e+01
    endloop
  endfacet
  facet normal -1.000000e+00 -3.011424e-06 -8.052115e-12
    outer loop
      vertex -8.290325e+00 -2.911270e+01 1.933345e+01
      vertex -8.290349e+00 -2.106889e+01 1.933345e+01
      vertex -8.290349e+00 -2.106888e+01 1.706862e+01
    endloop
  endfacet
  facet normal 3.652306e-06 -1.000000e+00 0.000000e+00
    outer loop
      vertex -8.290325e+00 -2.911270e+01 1.706861e+01
      vertex 8.290519e+00 -2.911264e+01 1.706860e+01
      vertex 8.290519e+00 -2.911264e+01 1.933344e+01
    endloop
  endfacet
  facet normal 3.652306e-06 -1.000000e+00 0.000000e+00
    outer loop
      vertex 8.290519e+00 -2.911264e+01 1.933344e+01
      vertex -8.290325e+00 -2.911270e+01 1.933345e+01
      vertex -8.290325e+00 -2.911270e+01 1.706861e+01
    endloop
  endfacet
  facet normal 1.000000e+00 3.011424e-06 0.000000e+00
    outer loop
      vertex 8.290519e+00 -2.911264e+01 1.706860e+01
      vertex 8.290494e+00 -2.106883e+01 1.706861e+01
      vertex 8.290494e+00 -2.106883e+01 1.933344e+01
    endloop
  endfacet
  facet normal 1.000000e+00 3.011424e-06 0.000000e+00
    outer loop
      vertex 8.290494e+00 -2.106883e+01 1.933344e+01
      vertex 8.290519e+00 -2.911264e+01 1.933344e+01
      vertex 8.290519e+00 -2.911264e+01 1.706860e+01
    endloop
  endfacet
  facet normal -9.934058e-07 -1.490118e-06 1.000000e+00
    outer loop
      vertex 4.149856e+00 2.667126e+01 2.407700e+01
      vertex 4.149856e+00 2.362326e+01 2.407700e+01
      vertex 7.197853e+00 2.362327e+01 2.407700e+01
    endloop
  endfacet
  facet normal -1.490110e-06 -1.986823e-06 1.000000e+00
    outer loop
      vertex 7.197853e+00 2.362327e+01 2.407700e+01
      vertex 7.197853e+00 2.667127e+01 2.407701e+01
      vertex 4.149856e+00 2.667126e+01 2.407700e+01
    endloop
  endfacet
  facet normal -9.934058e-07 -1.490125e-06 1.000000e+00
    outer loop
      vertex -7.105974e+00 2.667122e+01 2.407701e+01
      vertex -7.105949e+00 2.362322e+01 2.407701e+01
      vertex -4.057952e+00 2.362324e+01 2.407701e+01
    endloop
  endfacet
  facet normal -1.490098e-06 -1.986823e-06 1.000000e+00
    outer loop
      vertex -4.057952e+00 2.362324e+01 2.407701e+01
      vertex -4.057952e+00 2.667123e+01 2.407702e+01
      vertex -7.105974e+00 2.667122e+01 2.407701e+01
    endloop
  endfacet
  facet normal -9.934117e-07 -1.738482e-06 1.000000e+00
    outer loop
      vertex 4.150001e+00 -2.317798e+01 1.099551e+01
      vertex 4.150025e+00 -2.622597e+01 1.099551e+01
      vertex 7.198022e+00 -2.622597e+01 1.099551e+01
    endloop
  endfacet
  facet normal -7.450528e-07 -1.490121e-06 1.000000e+00
    outer loop
      vertex 7.198022e+00 -2.622597e+01 1.099551e+01
      vertex 7.197998e+00 -2.317796e+01 1.099552e+01
      vertex 4.150001e+00 -2.317798e+01 1.099551e+01
    endloop
  endfacet
  facet normal -7.450548e-07 -1.986823e-06 1.000000e+00
    outer loop
      vertex -7.105804e+00 -2.317801e+01 1.099552e+01
      vertex -7.105804e+00 -2.622601e+01 1.099552e+01
      vertex -4.057807e+00 -2.622600e+01 1.099552e+01
    endloop
  endfacet
  facet normal -9.934029e-07 -2.235172e-06 1.000000e+00
    outer loop
      vertex -4.057807e+00 -2.622600e+01 1.099552e+01
      vertex -4.057807e+00 -2.317800e+01 1.099552e+01
      vertex -7.105804e+00 -2.317801e+01 1.099552e+01
    endloop
  endfacet
  facet normal 1.996936e-08 9.419256e-08 1.000000e+00
    outer loop
      vertex 1.476400e+00 1.148274e+01 1.138534e+00
      vertex 2.749021e+00 1.221750e+01 1.138534e+00
      vertex -5.934715e-04 1.380499e+01 1.138534e+00
    endloop
  endfacet
  facet normal -1.281284e-07 -7.845600e-24 1.000000e+00
    outer loop
      vertex -5.934715e-04 1.380499e+01 1.138534e+00
      vertex -5.934715e-04 1.233547e+01 1.138534e+00
      vertex 1.476400e+00 1.148274e+01 1.138534e+00
    endloop
  endfacet
  facet normal 7.435127e-08 5.672552e-13 1.000000e+00
    outer loop
      vertex 1.476400e+00 9.777256e+00 1.138534e+00
      vertex 2.749045e+00 9.042496e+00 1.138534e+00
      vertex 2.749021e+00 1.221750e+01 1.138534e+00
    endloop
  endfacet
  facet normal 7.435236e-08 4.552770e-24 1.000000e+00
    outer loop
      vertex 2.749021e+00 1.221750e+01 1.138534e+00
      vertex 1.476400e+00 1.148274e+01 1.138534e+00
      vertex 1.476400e+00 9.777256e+00 1.138534e+00
    endloop
  endfacet
  facet normal -3.441266e-08 -2.107168e-24 1.000000e+00
    outer loop
      vertex -5.934715e-04 8.924510e+00 1.138534e+00
      vertex -5.934715e-04 7.454989e+00 1.138534e+00
      vertex 2.749045e+00 9.042496e+00 1.138534e+00
    endloop
  endfacet
  facet normal -2.688838e-08 -1.753521e-07 1.000000e+00
    outer loop
      vertex 2.749045e+00 9.042496e+00 1.138534e+00
      vertex 1.476400e+00 9.777256e+00 1.138534e+00
      vertex -5.934715e-04 8.924510e+00 1.138534e+00
    endloop
  endfacet
  facet normal 8.879452e-08 -2.501697e-08 1.000000e+00
    outer loop
      vertex -1.477587e+00 9.777247e+00 1.138534e+00
      vertex -2.750232e+00 9.042483e+00 1.138534e+00
      vertex -5.934715e-04 7.454989e+00 1.138534e+00
    endloop
  endfacet
  facet normal 1.281284e-07 7.845600e-24 1.000000e+00
    outer loop
      vertex -5.934715e-04 7.454989e+00 1.138534e+00
      vertex -5.934715e-04 8.924510e+00 1.138534e+00
      vertex -1.477587e+00 9.777247e+00 1.138534e+00
    endloop
  endfacet
  facet normal 7.435094e-08 4.552682e-24 1.000000e+00
    outer loop
      vertex -1.477587e+00 1.148273e+01 1.138534e+00
      vertex -2.750232e+00 1.221748e+01 1.138534e+00
      vertex -2.750232e+00 9.042483e+00 1.138534e+00
    endloop
  endfacet
  facet normal 7.435094e-08 4.552682e-24 1.000000e+00
    outer loop
      vertex -2.750232e+00 9.042483e+00 1.138534e+00
      vertex -1.477587e+00 9.777247e+00 1.138534e+00
      vertex -1.477587e+00 1.148273e+01 1.138534e+00
    endloop
  endfacet
  facet normal 1.032380e-07 6.321503e-24 1.000000e+00
    outer loop
      vertex -5.934715e-04 1.233547e+01 1.138534e+00
      vertex -5.934715e-04 1.380499e+01 1.138534e+00
      vertex -2.750232e+00 1.221748e+01 1.138534e+00
    endloop
  endfacet
  facet normal 1.012396e-07 4.657277e-08 1.000000e+00
    outer loop
      vertex -2.750232e+00 1.221748e+01 1.138534e+00
      vertex -1.477587e+00 1.148273e+01 1.138534e+00
      vertex -5.934715e-04 1.233547e+01 1.138534e+00
    endloop
  endfacet
  facet normal 4.099078e-07 2.509961e-23 1.000000e+00
    outer loop
      vertex -8.290349e+00 -2.106888e+01 3.997303e+00
      vertex -2.750232e+00 9.042483e+00 3.997300e+00
      vertex -2.750232e+00 1.221748e+01 3.997300e+00
    endloop
  endfacet
  facet normal 7.314539e-07 -5.351751e-08 1.000000e+00
    outer loop
      vertex -2.750232e+00 1.221748e+01 3.997300e+00
      vertex -8.290494e+00 2.136266e+01 3.997305e+00
      vertex -8.290349e+00 -2.106888e+01 3.997303e+00
    endloop
  endfacet
  facet normal 1.000000e+00 6.123234e-17 0.000000e+00
    outer loop
      vertex -2.750232e+00 9.042483e+00 1.138534e+00
      vertex -2.750232e+00 1.221748e+01 1.138534e+00
      vertex -2.750232e+00 1.221748e+01 3.997300e+00
    endloop
  endfacet
  facet normal 1.000000e+00 6.123234e-17 0.000000e+00
    outer loop
      vertex -2.750232e+00 1.221748e+01 3.997300e+00
      vertex -2.750232e+00 9.042483e+00 3.997300e+00
      vertex -2.750232e+00 9.042483e+00 1.138534e+00
    endloop
  endfacet
  facet normal 1.000000e+00 6.123234e-17 0.000000e+00
    outer loop
      vertex -1.477587e+00 1.148273e+01 7.569790e-06
      vertex -1.477587e+00 1.148273e+01 1.138534e+00
      vertex -1.477587e+00 9.777247e+00 1.138534e+00
    endloop
  endfacet
  facet normal 1.000000e+00 6.123234e-17 0.000000e+00
    outer loop
      vertex -1.477587e+00 9.777247e+00 1.138534e+00
      vertex -1.477587e+00 9.777247e+00 7.569790e-06
      vertex -1.477587e+00 1.148273e+01 7.569790e-06
    endloop
  endfacet
  facet normal 3.652306e-06 -1.000000e+00 -2.815738e-07
    outer loop
      vertex 8.290373e+00 2.136272e+01 1.933423e+01
      vertex -8.290470e+00 2.136266e+01 1.933425e+01
      vertex -4.392234e+00 2.136268e+01 1.613072e+01
    endloop
  endfacet
  facet normal 3.443109e-06 -1.000000e+00 5.466304e-07
    outer loop
      vertex -4.392234e+00 2.136268e+01 1.613072e+01
      vertex 4.401899e+00 2.136271e+01 1.613072e+01
      vertex 8.290373e+00 2.136272e+01 1.933423e+01
    endloop
  endfacet
  facet normal 3.660627e-06 -1.000000e+00 2.826048e-07
    outer loop
      vertex 8.290373e+00 2.136272e+01 1.933423e+01
      vertex 4.401899e+00 2.136271e+01 1.613072e+01
      vertex 4.401899e+00 2.136270e+01 5.416404e+00
    endloop
  endfacet
  facet normal 3.258863e-06 -1.000000e+00 3.948527e-07
    outer loop
      vertex 4.401899e+00 2.136270e+01 5.416404e+00
      vertex 8.290373e+00 2.136272e+01 3.997294e+00
      vertex 8.290373e+00 2.136272e+01 1.933423e+01
    endloop
  endfacet
  facet normal 9.934098e-07 4.819892e-07 1.000000e+00
    outer loop
      vertex -8.290494e+00 2.911264e+01 3.156497e+01
      vertex -7.105949e+00 2.667122e+01 3.156497e+01
      vertex -4.057952e+00 2.667123e+01 3.156497e+01
    endloop
  endfacet
  facet normal 1.095690e-06 6.593066e-07 1.000000e+00
    outer loop
      vertex -4.057952e+00 2.667123e+01 3.156497e+01
      vertex 8.290349e+00 2.911270e+01 3.156495e+01
      vertex -8.290494e+00 2.911264e+01 3.156497e+01
    endloop
  endfacet
  facet normal 0.000000e+00 0.000000e+00 1.000000e+00
    outer loop
      vertex 8.290373e+00 2.287110e+01 3.156495e+01
      vertex 8.290349e+00 2.911270e+01 3.156495e+01
      vertex 7.197853e+00 2.667127e+01 3.156495e+01
    endloop
  endfacet
  facet normal 0.000000e+00 0.000000e+00 1.000000e+00
    outer loop
      vertex 7.197853e+00 2.667127e+01 3.156495e+01
      vertex 7.197877e+00 2.362327e+01 3.156495e+01
      vertex 8.290373e+00 2.287110e+01 3.156495e+01
    endloop
  endfacet
  facet normal 4.967105e-07 -1.156660e-06 1.000000e+00
    outer loop
      vertex -8.290349e+00 -2.106889e+01 1.933345e+01
      vertex -7.105804e+00 -2.317801e+01 1.933345e+01
      vertex -4.057807e+00 -2.317800e+01 1.933344e+01
    endloop
  endfacet
  facet normal 7.304638e-07 -6.875665e-07 1.000000e+00
    outer loop
      vertex -4.057807e+00 -2.317800e+01 1.933344e+01
      vertex 8.290494e+00 -2.106883e+01 1.933344e+01
      vertex -8.290349e+00 -2.106889e+01 1.933345e+01
    endloop
  endfacet
  facet normal -5.000004e-01 8.660252e-01 0.000000e+00
    outer loop
      vertex 2.749045e+00 9.042496e+00 1.138534e+00
      vertex -5.934715e-04 7.454989e+00 1.138534e+00
      vertex -5.934715e-04 7.454989e+00 3.997299e+00
    endloop
  endfacet
  facet normal -5.000018e-01 8.660244e-01 -1.834534e-06
    outer loop
      vertex -5.934715e-04 7.454989e+00 3.997299e+00
      vertex 2.749045e+00 9.042502e+00 3.997297e+00
      vertex 2.749045e+00 9.042496e+00 1.138534e+00
    endloop
  endfacet
  facet normal 4.513101e-07 3.872035e-07 1.000000e+00
    outer loop
      vertex 8.290494e+00 -2.106883e+01 1.933344e+01
      vertex -4.057807e+00 -2.622600e+01 1.933344e+01
      vertex -8.290325e+00 -2.911270e+01 1.933345e+01
    endloop
  endfacet
  facet normal 6.106785e-06 -1.127042e-05 1.000000e+00
    outer loop
      vertex -8.290325e+00 -2.911270e+01 1.933345e+01
      vertex 4.150025e+00 -2.317798e+01 1.933344e+01
      vertex 8.290494e+00 -2.106883e+01 1.933344e+01
    endloop
  endfacet
  facet normal 2.769715e-06 -1.000000e+00 -4.401154e-07
    outer loop
      vertex 7.197998e+00 -2.317796e+01 1.099552e+01
      vertex 6.336471e+00 -2.317797e+01 1.933344e+01
      vertex 4.150025e+00 -2.317798e+01 1.933344e+01
    endloop
  endfacet
  facet normal 3.973647e-06 -1.000000e+00 -1.154423e-11
    outer loop
      vertex 4.150025e+00 -2.317798e+01 1.933344e+01
      vertex 4.150001e+00 -2.317798e+01 1.099551e+01
      vertex 7.197998e+00 -2.317796e+01 1.099552e+01
    endloop
  endfacet
  facet normal 4.967059e-07 -3.364807e-07 1.000000e+00
    outer loop
      vertex 8.290519e+00 -2.911264e+01 1.933344e+01
      vertex 7.198022e+00 -2.622597e+01 1.933344e+01
      vertex 4.150025e+00 -2.622597e+01 1.933344e+01
    endloop
  endfacet
  facet normal 7.304612e-07 -1.193738e-09 1.000000e+00
    outer loop
      vertex 4.150025e+00 -2.622597e+01 1.933344e+01
      vertex -8.290325e+00 -2.911270e+01 1.933345e+01
      vertex 8.290519e+00 -2.911264e+01 1.933344e+01
    endloop
  endfacet
  facet normal -5.000015e-01 -8.660245e-01 1.834535e-06
    outer loop
      vertex -5.934715e-04 1.380499e+01 1.138534e+00
      vertex 2.749021e+00 1.221750e+01 1.138534e+00
      vertex 2.749021e+00 1.221750e+01 3.997297e+00
    endloop
  endfacet
  facet normal -4.999968e-01 -8.660272e-01 -4.236650e-06
    outer loop
      vertex 2.749021e+00 1.221750e+01 3.997297e+00
      vertex -6.176949e-04 1.380499e+01 3.997299e+00
      vertex -5.934715e-04 1.380499e+01 1.138534e+00
    endloop
  endfacet
  facet normal 4.999975e-01 8.660268e-01 0.000000e+00
    outer loop
      vertex -5.934715e-04 7.454989e+00 1.138534e+00
      vertex -2.750232e+00 9.042483e+00 1.138534e+00
      vertex -2.750232e+00 9.042483e+00 3.997300e+00
    endloop
  endfacet
  facet normal 4.999975e-01 8.660268e-01 0.000000e+00
    outer loop
      vertex -2.750232e+00 9.042483e+00 3.997300e+00
      vertex -5.934715e-04 7.454989e+00 3.997299e+00
      vertex -5.934715e-04 7.454989e+00 1.138534e+00
    endloop
  endfacet
  facet normal -5.000015e-01 8.660245e-01 0.000000e+00
    outer loop
      vertex -5.934715e-04 8.924510e+00 6.623566e-06
      vertex -5.934715e-04 8.924510e+00 1.138534e+00
      vertex 1.476400e+00 9.777256e+00 1.138534e+00
    endloop
  endfacet
  facet normal -5.000002e-01 8.660253e-01 -2.303193e-06
    outer loop
      vertex 1.476400e+00 9.777256e+00 1.138534e+00
      vertex 1.476400e+00 9.777253e+00 5.677342e-06
      vertex -5.934715e-04 8.924510e+00 6.623566e-06
    endloop
  endfacet
  facet normal 3.973647e-06 -1.000000e+00 0.000000e+00
    outer loop
      vertex -4.057952e+00 2.667123e+01 2.407702e+01
      vertex -4.057952e+00 2.667123e+01 3.156497e+01
      vertex -7.105949e+00 2.667122e+01 3.156497e+01
    endloop
  endfacet
  facet normal 3.973615e-06 -1.000000e+00 -1.285453e-11
    outer loop
      vertex -7.105949e+00 2.667122e+01 3.156497e+01
      vertex -7.105974e+00 2.667122e+01 2.407701e+01
      vertex -4.057952e+00 2.667123e+01 2.407702e+01
    endloop
  endfacet
  facet normal -1.000000e+00 -7.629395e-06 1.616166e-11
    outer loop
      vertex 2.749021e+00 1.221750e+01 1.138534e+00
      vertex 2.749045e+00 9.042496e+00 1.138534e+00
      vertex 2.749045e+00 9.042502e+00 3.997297e+00
    endloop
  endfacet
  facet normal -1.000000e+00 -7.629395e-06 1.616166e-11
    outer loop
      vertex 2.749045e+00 9.042502e+00 3.997297e+00
      vertex 2.749021e+00 1.221750e+01 3.997297e+00
      vertex 2.749021e+00 1.221750e+01 1.138534e+00
    endloop
  endfacet
  facet normal -5.132105e-07 -3.142508e-23 -1.000000e+00
    outer loop
      vertex 1.476400e+00 9.777253e+00 5.677342e-06
      vertex 1.476400e+00 1.148274e+01 5.677342e-06
      vertex 5.163868e+00 2.136271e+01 3.784895e-06
    endloop
  endfacet
  facet normal -5.692548e-07 1.783806e-08 -1.000000e+00
    outer loop
      vertex 5.163868e+00 2.136271e+01 3.784895e-06
      vertex 5.164014e+00 -2.106883e+01 3.027916e-06
      vertex 1.476400e+00 9.777253e+00 5.677342e-06
    endloop
  endfacet
  facet normal -1.000000e+00 -6.123234e-17 0.000000e+00
    outer loop
      vertex 1.476400e+00 9.777253e+00 5.677342e-06
      vertex 1.476400e+00 9.777256e+00 1.138534e+00
      vertex 1.476400e+00 1.148274e+01 1.138534e+00
    endloop
  endfacet
  facet normal -1.000000e+00 -6.123234e-17 0.000000e+00
    outer loop
      vertex 1.476400e+00 1.148274e+01 1.138534e+00
      vertex 1.476400e+00 1.148274e+01 5.677342e-06
      vertex 1.476400e+00 9.777253e+00 5.677342e-06
    endloop
  endfacet
  facet normal 3.977134e-07 2.648171e-07 1.000000e+00
    outer loop
      vertex -2.750232e+00 1.221748e+01 3.997300e+00
      vertex -6.176949e-04 1.380499e+01 3.997299e+00
      vertex 8.290373e+00 2.136272e+01 3.997294e+00
    endloop
  endfacet
  facet normal 6.848067e-07 -8.177697e-08 1.000000e+00
    outer loop
      vertex 8.290373e+00 2.136272e+01 3.997294e+00
      vertex -8.290494e+00 2.136266e+01 3.997305e+00
      vertex -2.750232e+00 1.221748e+01 3.997300e+00
    endloop
  endfacet
  facet normal 5.000044e-01 -8.660229e-01 4.236715e-06
    outer loop
      vertex -5.934715e-04 1.380499e+01 1.138534e+00
      vertex -6.176949e-04 1.380499e+01 3.997299e+00
      vertex -2.750232e+00 1.221748e+01 3.997300e+00
    endloop
  endfacet
  facet normal 5.000011e-01 -8.660248e-01 0.000000e+00
    outer loop
      vertex -2.750232e+00 1.221748e+01 3.997300e+00
      vertex -2.750232e+00 1.221748e+01 1.138534e+00
      vertex -5.934715e-04 1.380499e+01 1.138534e+00
    endloop
  endfacet
  facet normal -6.855175e-07 7.772674e-08 -1.000000e+00
    outer loop
      vertex 5.163868e+00 2.136271e+01 3.784895e-06
      vertex -5.934715e-04 1.233547e+01 6.623566e-06
      vertex -1.477587e+00 1.148273e+01 7.569790e-06
    endloop
  endfacet
  facet normal -5.863590e-07 1.107106e-08 -1.000000e+00
    outer loop
      vertex -1.477587e+00 1.148273e+01 7.569790e-06
      vertex -5.163990e+00 2.136267e+01 9.840727e-06
      vertex 5.163868e+00 2.136271e+01 3.784895e-06
    endloop
  endfacet
  facet normal 5.000002e-01 -8.660253e-01 0.000000e+00
    outer loop
      vertex -1.477587e+00 1.148273e+01 7.569790e-06
      vertex -5.934715e-04 1.233547e+01 6.623566e-06
      vertex -5.934715e-04 1.233547e+01 1.138534e+00
    endloop
  endfacet
  facet normal 5.000002e-01 -8.660253e-01 0.000000e+00
    outer loop
      vertex -5.934715e-04 1.233547e+01 1.138534e+00
      vertex -1.477587e+00 1.148273e+01 1.138534e+00
      vertex -1.477587e+00 1.148273e+01 7.569790e-06
    endloop
  endfacet
  facet normal -3.114760e-06 1.000000e+00 0.000000e+00
    outer loop
      vertex 4.401875e+00 2.911269e+01 5.416406e+00
      vertex 4.401875e+00 2.911269e+01 1.613072e+01
      vertex 8.290349e+00 2.911270e+01 1.933423e+01
    endloop
  endfacet
  facet normal -2.408122e-06 1.000000e+00 -1.974263e-07
    outer loop
      vertex 8.290349e+00 2.911270e+01 1.933423e+01
      vertex 8.290349e+00 2.911269e+01 3.997294e+00
      vertex 4.401875e+00 2.911269e+01 5.416406e+00
    endloop
  endfacet
  facet normal 3.004084e-06 -1.000000e+00 2.825980e-07
    outer loop
      vertex -8.290494e+00 2.136266e+01 3.997305e+00
      vertex -4.392259e+00 2.136267e+01 5.416408e+00
      vertex -4.392234e+00 2.136268e+01 1.613072e+01
    endloop
  endfacet
  facet normal 3.883695e-06 -1.000000e+00 -6.133948e-12
    outer loop
      vertex -4.392234e+00 2.136268e+01 1.613072e+01
      vertex -8.290470e+00 2.136266e+01 1.933425e+01
      vertex -8.290494e+00 2.136266e+01 3.997305e+00
    endloop
  endfacet
  facet normal 3.443099e-06 -1.000000e+00 -9.233635e-07
    outer loop
      vertex 4.401899e+00 2.136270e+01 5.416404e+00
      vertex -4.392259e+00 2.136267e+01 5.416408e+00
      vertex -8.290494e+00 2.136266e+01 3.997305e+00
    endloop
  endfacet
  facet normal 3.287071e-06 -1.000000e+00 4.721454e-07
    outer loop
      vertex -8.290494e+00 2.136266e+01 3.997305e+00
      vertex 8.290373e+00 2.136272e+01 3.997294e+00
      vertex 4.401899e+00 2.136270e+01 5.416404e+00
    endloop
  endfacet
  facet normal -1.000000e+00 -6.123234e-17 0.000000e+00
    outer loop
      vertex -4.057952e+00 2.362324e+01 2.407701e+01
      vertex -4.057952e+00 2.362324e+01 3.156497e+01
      vertex -4.057952e+00 2.667123e+01 3.156497e+01
    endloop
  endfacet
  facet normal -1.000000e+00 -6.123234e-17 0.000000e+00
    outer loop
      vertex -4.057952e+00 2.667123e+01 3.156497e+01
      vertex -4.057952e+00 2.667123e+01 2.407702e+01
      vertex -4.057952e+00 2.362324e+01 2.407701e+01
    endloop
  endfacet
  facet normal -1.000000e+00 -7.947294e-06 3.234974e-06
    outer loop
      vertex 7.197853e+00 2.362327e+01 2.407700e+01
      vertex 7.197877e+00 2.362327e+01 3.156495e+01
      vertex 7.197853e+00 2.667127e+01 3.156495e+01
    endloop
  endfacet
  facet normal -1.000000e+00 -6.123234e-17 0.000000e+00
    outer loop
      vertex 7.197853e+00 2.667127e+01 3.156495e+01
      vertex 7.197853e+00 2.667127e+01 2.407701e+01
      vertex 7.197853e+00 2.362327e+01 2.407700e+01
    endloop
  endfacet
  facet normal 7.335045e-08 -4.967048e-07 1.000000e+00
    outer loop
      vertex 7.198022e+00 -2.317796e+01 1.933344e+01
      vertex 7.198022e+00 -2.622597e+01 1.933344e+01
      vertex 8.290519e+00 -2.911264e+01 1.933344e+01
    endloop
  endfacet
  facet normal 1.749167e-06 -1.882088e-07 1.000000e+00
    outer loop
      vertex 8.290519e+00 -2.911264e+01 1.933344e+01
      vertex 8.290494e+00 -2.106883e+01 1.933344e+01
      vertex 7.198022e+00 -2.317796e+01 1.933344e+01
    endloop
  endfacet
  facet normal -1.000000e+00 -7.947282e-06 2.905199e-06
    outer loop
      vertex 7.198022e+00 -2.317796e+01 1.933344e+01
      vertex 7.197998e+00 -2.317796e+01 1.099552e+01
      vertex 7.198022e+00 -2.622597e+01 1.099551e+01
    endloop
  endfacet
  facet normal -1.000000e+00 -6.123234e-17 0.000000e+00
    outer loop
      vertex 7.198022e+00 -2.622597e+01 1.099551e+01
      vertex 7.198022e+00 -2.622597e+01 1.933344e+01
      vertex 7.198022e+00 -2.317796e+01 1.933344e+01
    endloop
  endfacet
  facet normal -1.000000e+00 -6.123234e-17 0.000000e+00
    outer loop
      vertex -4.057807e+00 -2.622600e+01 1.099552e+01
      vertex -4.057807e+00 -2.622600e+01 1.933344e+01
      vertex -4.057807e+00 -2.317800e+01 1.933344e+01
    endloop
  endfacet
  facet normal -1.000000e+00 -6.123234e-17 0.000000e+00
    outer loop
      vertex -4.057807e+00 -2.317800e+01 1.933344e+01
      vertex -4.057807e+00 -2.317800e+01 1.099552e+01
      vertex -4.057807e+00 -2.622600e+01 1.099552e+01
    endloop
  endfacet
  facet normal -3.787421e-06 1.000000e+00 -8.280239e-07
    outer loop
      vertex 4.401875e+00 2.911269e+01 1.613072e+01
      vertex -4.392259e+00 2.911265e+01 1.613073e+01
      vertex -8.290494e+00 2.911264e+01 1.933425e+01
    endloop
  endfacet
  facet normal -3.469690e-06 1.000000e+00 4.308194e-07
    outer loop
      vertex -8.290494e+00 2.911264e+01 1.933425e+01
      vertex 8.290349e+00 2.911270e+01 1.933423e+01
      vertex 4.401875e+00 2.911269e+01 1.613072e+01
    endloop
  endfacet
  facet normal -3.004084e-06 1.000000e+00 -2.825979e-07
    outer loop
      vertex -4.392259e+00 2.911265e+01 1.613073e+01
      vertex -4.392283e+00 2.911265e+01 5.416410e+00
      vertex -8.290519e+00 2.911264e+01 3.997305e+00
    endloop
  endfacet
  facet normal -3.269199e-06 1.000000e+00 -1.974211e-07
    outer loop
      vertex -8.290519e+00 2.911264e+01 3.997305e+00
      vertex -8.290494e+00 2.911264e+01 1.933425e+01
      vertex -4.392259e+00 2.911265e+01 1.613073e+01
    endloop
  endfacet
  facet normal -4.131718e-06 1.000000e+00 2.814977e-06
    outer loop
      vertex -8.290519e+00 2.911264e+01 3.997305e+00
      vertex -4.392283e+00 2.911265e+01 5.416410e+00
      vertex 4.401875e+00 2.911269e+01 5.416406e+00
    endloop
  endfacet
  facet normal -3.469688e-06 1.000000e+00 -3.106198e-06
    outer loop
      vertex 4.401875e+00 2.911269e+01 5.416406e+00
      vertex 8.290349e+00 2.911269e+01 3.997294e+00
      vertex -8.290519e+00 2.911264e+01 3.997305e+00
    endloop
  endfacet
  facet normal 0.000000e+00 0.000000e+00 1.000000e+00
    outer loop
      vertex -7.105949e+00 2.362322e+01 3.156497e+01
      vertex -7.105949e+00 2.667122e+01 3.156497e+01
      vertex -8.290494e+00 2.911264e+01 3.156497e+01
    endloop
  endfacet
  facet normal 0.000000e+00 0.000000e+00 1.000000e+00
    outer loop
      vertex -8.290494e+00 2.911264e+01 3.156497e+01
      vertex -8.290470e+00 2.287105e+01 3.156497e+01
      vertex -7.105949e+00 2.362322e+01 3.156497e+01
    endloop
  endfacet
  facet normal 1.000000e+00 7.947294e-06 0.000000e+00
    outer loop
      vertex 4.149856e+00 2.667126e+01 2.407700e+01
      vertex 4.149856e+00 2.667126e+01 3.156496e+01
      vertex 4.149880e+00 2.362326e+01 3.156496e+01
    endloop
  endfacet
  facet normal 1.000000e+00 4.820548e-12 -3.234971e-06
    outer loop
      vertex 4.149880e+00 2.362326e+01 3.156496e+01
      vertex 4.149856e+00 2.362326e+01 2.407700e+01
      vertex 4.149856e+00 2.667126e+01 2.407700e+01
    endloop
  endfacet
  facet normal 1.000000e+00 6.123234e-17 0.000000e+00
    outer loop
      vertex 4.150025e+00 -2.317798e+01 1.933344e+01
      vertex 4.150025e+00 -2.622597e+01 1.933344e+01
      vertex 4.150025e+00 -2.622597e+01 1.099551e+01
    endloop
  endfacet
  facet normal 1.000000e+00 7.947315e-06 -2.905198e-06
    outer loop
      vertex 4.150025e+00 -2.622597e+01 1.099551e+01
      vertex 4.150001e+00 -2.317798e+01 1.099551e+01
      vertex 4.150025e+00 -2.317798e+01 1.933344e+01
    endloop
  endfacet
  facet normal -1.986823e-06 1.000000e+00 0.000000e+00
    outer loop
      vertex -7.105804e+00 -2.622601e+01 1.099552e+01
      vertex -7.105804e+00 -2.622601e+01 1.933345e+01
      vertex -4.057807e+00 -2.622600e+01 1.933344e+01
    endloop
  endfacet
  facet normal -1.986823e-06 1.000000e+00 -0.000000e+00
    outer loop
      vertex -4.057807e+00 -2.622600e+01 1.933344e+01
      vertex -4.057807e+00 -2.622600e+01 1.099552e+01
      vertex -7.105804e+00 -2.622601e+01 1.099552e+01
    endloop
  endfacet
  facet normal 4.999976e-01 8.660268e-01 0.000000e+00
    outer loop
      vertex -5.934715e-04 8.924510e+00 6.623566e-06
      vertex -1.477587e+00 9.777247e+00 7.569790e-06
      vertex -1.477587e+00 9.777247e+00 1.138534e+00
    endloop
  endfacet
  facet normal 4.999976e-01 8.660268e-01 0.000000e+00
    outer loop
      vertex -1.477587e+00 9.777247e+00 1.138534e+00
      vertex -5.934715e-04 8.924510e+00 1.138534e+00
      vertex -5.934715e-04 8.924510e+00 6.623566e-06
    endloop
  endfacet
  facet normal -4.999962e-01 -8.660276e-01 0.000000e+00
    outer loop
      vertex -5.934715e-04 1.233547e+01 6.623566e-06
      vertex 1.476400e+00 1.148274e+01 5.677342e-06
      vertex 1.476400e+00 1.148274e+01 1.138534e+00
    endloop
  endfacet
  facet normal -4.999962e-01 -8.660276e-01 0.000000e+00
    outer loop
      vertex 1.476400e+00 1.148274e+01 1.138534e+00
      vertex -5.934715e-04 1.233547e+01 1.138534e+00
      vertex -5.934715e-04 1.233547e+01 6.623566e-06
    endloop
  endfacet
  facet normal -1.032934e-06 3.906969e-07 -1.000000e+00
    outer loop
      vertex -4.392234e+00 2.136268e+01 1.613072e+01
      vertex -4.392259e+00 2.911265e+01 1.613073e+01
      vertex 4.401875e+00 2.911269e+01 1.613072e+01
    endloop
  endfacet
  facet normal -6.886218e-07 -2.152356e-12 -1.000000e+00
    outer loop
      vertex 4.401875e+00 2.911269e+01 1.613072e+01
      vertex 4.401899e+00 2.136271e+01 1.613072e+01
      vertex -4.392234e+00 2.136268e+01 1.613072e+01
    endloop
  endfacet
  facet normal -1.000000e+00 -3.125598e-06 8.833091e-13
    outer loop
      vertex 4.401875e+00 2.911269e+01 5.416406e+00
      vertex 4.401899e+00 2.136270e+01 5.416404e+00
      vertex 4.401899e+00 2.136271e+01 1.613072e+01
    endloop
  endfacet
  facet normal -1.000000e+00 -3.125600e-06 0.000000e+00
    outer loop
      vertex 4.401899e+00 2.136271e+01 1.613072e+01
      vertex 4.401875e+00 2.911269e+01 1.613072e+01
      vertex 4.401875e+00 2.911269e+01 5.416406e+00
    endloop
  endfacet
  facet normal 1.000000e+00 6.123234e-17 0.000000e+00
    outer loop
      vertex -7.105949e+00 2.667122e+01 3.156497e+01
      vertex -7.105949e+00 2.362322e+01 3.156497e+01
      vertex -7.105949e+00 2.362322e+01 2.407701e+01
    endloop
  endfacet
  facet normal 1.000000e+00 7.947298e-06 -3.234970e-06
    outer loop
      vertex -7.105949e+00 2.362322e+01 2.407701e+01
      vertex -7.105974e+00 2.667122e+01 2.407701e+01
      vertex -7.105949e+00 2.667122e+01 3.156497e+01
    endloop
  endfacet
  facet normal -3.973647e-06 1.000000e+00 0.000000e+00
    outer loop
      vertex -7.105949e+00 2.362322e+01 2.407701e+01
      vertex -7.105949e+00 2.362322e+01 3.156497e+01
      vertex -4.057952e+00 2.362324e+01 3.156497e+01
    endloop
  endfacet
  facet normal -3.973647e-06 1.000000e+00 -0.000000e+00
    outer loop
      vertex -4.057952e+00 2.362324e+01 3.156497e+01
      vertex -4.057952e+00 2.362324e+01 2.407701e+01
      vertex -7.105949e+00 2.362322e+01 2.407701e+01
    endloop
  endfacet
  facet normal 3.973647e-06 -1.000000e+00 0.000000e+00
    outer loop
      vertex 4.149856e+00 2.667126e+01 3.156496e+01
      vertex 4.149856e+00 2.667126e+01 2.407700e+01
      vertex 7.197853e+00 2.667127e+01 2.407701e+01
    endloop
  endfacet
  facet normal 3.973647e-06 -1.000000e+00 0.000000e+00
    outer loop
      vertex 7.197853e+00 2.667127e+01 2.407701e+01
      vertex 7.197853e+00 2.667127e+01 3.156495e+01
      vertex 4.149856e+00 2.667126e+01 3.156496e+01
    endloop
  endfacet
  facet normal 9.933970e-07 3.697595e-06 1.000000e+00
    outer loop
      vertex 7.197877e+00 2.362327e+01 3.156495e+01
      vertex 4.149880e+00 2.362326e+01 3.156496e+01
      vertex -8.290470e+00 2.287105e+01 3.156497e+01
    endloop
  endfacet
  facet normal 1.095687e-06 1.591442e-06 1.000000e+00
    outer loop
      vertex -8.290470e+00 2.287105e+01 3.156497e+01
      vertex 8.290373e+00 2.287110e+01 3.156495e+01
      vertex 7.197877e+00 2.362327e+01 3.156495e+01
    endloop
  endfacet
  facet normal -3.973647e-06 1.000000e+00 1.285463e-11
    outer loop
      vertex 4.149856e+00 2.362326e+01 2.407700e+01
      vertex 4.149880e+00 2.362326e+01 3.156496e+01
      vertex 7.197877e+00 2.362327e+01 3.156495e+01
    endloop
  endfacet
  facet normal -3.973647e-06 1.000000e+00 1.285464e-11
    outer loop
      vertex 7.197877e+00 2.362327e+01 3.156495e+01
      vertex 7.197853e+00 2.362327e+01 2.407700e+01
      vertex 4.149856e+00 2.362326e+01 2.407700e+01
    endloop
  endfacet
  facet normal -6.123234e-17 1.000000e+00 0.000000e+00
    outer loop
      vertex 7.198022e+00 -2.622597e+01 1.933344e+01
      vertex 7.198022e+00 -2.622597e+01 1.099551e+01
      vertex 4.150025e+00 -2.622597e+01 1.099551e+01
    endloop
  endfacet
  facet normal -6.123234e-17 1.000000e+00 0.000000e+00
    outer loop
      vertex 4.150025e+00 -2.622597e+01 1.099551e+01
      vertex 4.150025e+00 -2.622597e+01 1.933344e+01
      vertex 7.198022e+00 -2.622597e+01 1.933344e+01
    endloop
  endfacet
  facet normal 2.556185e-06 1.565212e-22 1.000000e+00
    outer loop
      vertex -7.105804e+00 -2.622601e+01 1.933345e+01
      vertex -7.105804e+00 -2.317801e+01 1.933345e+01
      vertex -8.290349e+00 -2.106889e+01 1.933345e+01
    endloop
  endfacet
  facet normal 1.736785e-06 -1.882088e-07 1.000000e+00
    outer loop
      vertex -8.290349e+00 -2.106889e+01 1.933345e+01
      vertex -8.290325e+00 -2.911270e+01 1.933345e+01
      vertex -7.105804e+00 -2.622601e+01 1.933345e+01
    endloop
  endfacet
  facet normal 1.000000e+00 6.123234e-17 0.000000e+00
    outer loop
      vertex -7.105804e+00 -2.317801e+01 1.099552e+01
      vertex -7.105804e+00 -2.317801e+01 1.933345e+01
      vertex -7.105804e+00 -2.622601e+01 1.933345e+01
    endloop
  endfacet
  facet normal 1.000000e+00 6.123234e-17 0.000000e+00
    outer loop
      vertex -7.105804e+00 -2.622601e+01 1.933345e+01
      vertex -7.105804e+00 -2.622601e+01 1.099552e+01
      vertex -7.105804e+00 -2.317801e+01 1.099552e+01
    endloop
  endfacet
  facet normal 3.973647e-06 -1.000000e+00 0.000000e+00
    outer loop
      vertex -4.057807e+00 -2.317800e+01 1.099552e+01
      vertex -4.057807e+00 -2.317800e+01 1.933344e+01
      vertex -7.105804e+00 -2.317801e+01 1.933345e+01
    endloop
  endfacet
  facet normal 3.973647e-06 -1.000000e+00 0.000000e+00
    outer loop
      vertex -7.105804e+00 -2.317801e+01 1.933345e+01
      vertex -7.105804e+00 -2.317801e+01 1.099552e+01
      vertex -4.057807e+00 -2.317800e+01 1.099552e+01
    endloop
  endfacet
  facet normal 1.000000e+00 3.125602e-06 -2.260839e-06
    outer loop
      vertex -4.392283e+00 2.911265e+01 5.416410e+00
      vertex -4.392259e+00 2.911265e+01 1.613073e+01
      vertex -4.392234e+00 2.136268e+01 1.613072e+01
    endloop
  endfacet
  facet normal 1.000000e+00 3.125601e-06 -2.260839e-06
    outer loop
      vertex -4.392234e+00 2.136268e+01 1.613072e+01
      vertex -4.392259e+00 2.136267e+01 5.416408e+00
      vertex -4.392283e+00 2.911265e+01 5.416410e+00
    endloop
  endfacet
  facet normal 4.303881e-07 -1.953485e-07 1.000000e+00
    outer loop
      vertex -4.392259e+00 2.136267e+01 5.416408e+00
      vertex 4.401899e+00 2.136270e+01 5.416404e+00
      vertex 4.401875e+00 2.911269e+01 5.416406e+00
    endloop
  endfacet
  facet normal 4.303882e-07 -1.953487e-07 1.000000e+00
    outer loop
      vertex 4.401875e+00 2.911269e+01 5.416406e+00
      vertex -4.392283e+00 2.911265e+01 5.416410e+00
      vertex -4.392259e+00 2.136267e+01 5.416408e+00
    endloop
  endfacet
  facet normal 2.741875e-06 -3.409792e-06 1.000000e+00
    outer loop
      vertex -4.057952e+00 2.362324e+01 3.156497e+01
      vertex 4.149856e+00 2.667126e+01 3.156496e+01
      vertex 8.290349e+00 2.911270e+01 3.156495e+01
    endloop
  endfacet
  facet normal 1.226045e-06 7.507363e-23 1.000000e+00
    outer loop
      vertex 8.290349e+00 2.911270e+01 3.156495e+01
      vertex -4.057952e+00 2.667123e+01 3.156497e+01
      vertex -4.057952e+00 2.362324e+01 3.156497e+01
    endloop
  endfacet
endsolid Default
